<svg width="118" height="27" viewBox="0 0 118 27" fill="none" xmlns="http://www.w3.org/2000/svg">
<path d="M2.12435 18.7626C2.12435 18.7626 4.8584 20.324 5.40436 20.4026C5.95032 20.4812 7.66892 20.4026 7.12296 19.2299C6.577 18.0573 4.88602 17.1226 4.68633 17.044C4.48664 16.9654 1.43182 14.4671 1.58689 12.517C1.58689 12.517 2.60233 13.4538 3.53917 13.3667C3.53917 13.3667 0.365389 10.9471 0 7.90074C0 7.90074 2.05638 9.69582 2.52373 9.54074C2.99109 9.38566 -1.76959 6.14177 1.67399 0.505859C1.67399 0.505859 2.45575 4.62073 5.18767 7.35478C7.91959 10.0888 8.68649 13.9764 8.68649 13.9764C8.68649 13.9764 8.85856 14.8028 9.20058 13.7894C9.5426 12.7761 9.00939 11.92 9.3939 11.3422C9.55535 11.0979 9.6297 12.1792 9.77628 12.0602C9.85063 12.0007 10.1353 10.2758 11.2633 9.35167C11.2633 9.35167 10.4008 13.7512 11.9877 16.4853C11.9877 16.4853 12.3531 17.318 15.085 15.8862C17.817 14.4544 18.3119 14.0911 20.0836 14.8707C20.0836 14.8707 21.1288 14.6116 21.2542 15.0832C21.2542 15.0832 19.5356 15.3955 18.5201 15.8373C17.5047 16.2792 16.0686 15.5973 14.9746 16.5362C13.8805 17.4752 9.87612 21.7154 6.95939 21.5072C6.95939 21.5072 6.46441 24.3709 3.08031 22.3676C3.08031 22.3676 1.49979 21.4053 2.12435 18.7626Z" fill="#9868EF"/>
<path d="M30.5008 9.40698C31.3435 9.39876 32.1793 9.56043 32.9582 9.88235C33.7371 10.2043 34.4431 10.6798 35.0341 11.2807C35.6593 11.8797 36.1524 12.6029 36.4816 13.4037C36.8109 14.2045 36.9691 15.0653 36.946 15.9309C36.946 17.847 36.3017 19.4368 35.0129 20.7001C33.7603 21.9093 32.0897 22.5891 30.3487 22.5978C28.6076 22.6065 26.9303 21.9435 25.6657 20.7468C24.4081 19.5104 23.7793 17.915 23.7793 15.9606C23.7793 13.9595 24.5058 12.3266 25.9589 11.0619C27.2125 9.96141 28.8331 9.37093 30.5008 9.40698ZM30.2883 10.2142C29.0859 10.2142 28.1186 10.6172 27.3864 11.423C26.4602 12.4328 25.9978 13.9786 25.9992 16.0605C25.9992 18.0998 26.468 19.6704 27.4056 20.7723C27.7585 21.1888 28.2012 21.5199 28.7006 21.7407C29.1999 21.9615 29.7427 22.0661 30.2883 22.0469C31.5318 22.0469 32.5331 21.622 33.2922 20.7723C34.1816 19.7696 34.6262 18.2889 34.6262 16.3303C34.6262 14.8234 34.3819 13.5566 33.8933 12.5298C33.5811 11.808 33.0584 11.1972 32.3936 10.7772C31.7566 10.399 31.0269 10.2056 30.2862 10.2185L30.2883 10.2142Z" fill="black"/>
<path d="M44.7265 21.3671C44.3819 21.7628 43.9577 22.0813 43.4817 22.3018C43.0515 22.4917 42.5859 22.588 42.1157 22.5844C41.6241 22.5852 41.1379 22.4817 40.6893 22.2806C40.2407 22.0796 39.8399 21.7856 39.5134 21.4181C38.7741 20.6406 38.4038 19.6414 38.4023 18.4206C38.4042 17.1938 38.8399 16.0071 39.6323 15.0705C40.0027 14.5866 40.4819 14.1969 41.0312 13.933C41.5804 13.6691 42.1842 13.5384 42.7934 13.5516C43.522 13.524 44.9326 14.2675 44.9326 14.2675V12.7805C44.9525 12.1862 44.9298 11.5913 44.8646 11.0003C44.8463 10.8299 44.7716 10.6706 44.6522 10.5478C44.5497 10.4666 44.4217 10.4245 44.2911 10.4288C44.0764 10.4409 43.8656 10.4912 43.6686 10.5775L43.5518 10.2546L46.0203 9.2243H46.426V18.9963C46.4083 19.6012 46.431 20.2066 46.494 20.8084C46.5147 20.9793 46.5891 21.1392 46.7064 21.2651C46.8023 21.3503 46.9266 21.3965 47.0548 21.3947C47.2746 21.3786 47.4901 21.3254 47.6921 21.2375L47.792 21.5604L45.3532 22.6077H44.7159L44.7265 21.3671ZM44.7265 20.7171V16.3303C44.6931 15.9233 44.5721 15.5284 44.3718 15.1725C44.2165 14.8835 43.9923 14.6373 43.719 14.4557C43.4458 14.2742 43.1319 14.1629 42.8053 14.1318C42.4787 14.1007 42.1495 14.1507 41.8468 14.2774C41.5442 14.4041 41.2776 14.6036 41.0705 14.8581C40.4757 15.5011 40.1783 16.4429 40.1783 17.6835C40.1783 18.9241 40.4686 19.8829 41.0493 20.5599C41.6314 21.2227 42.2793 21.5555 42.9931 21.5583C43.5879 21.5611 44.1657 21.2807 44.7265 20.7171Z" fill="black"/>
<path d="M50.9441 9.22415L52.7265 10.8981L50.9335 12.5806L49.1533 10.9066L50.9441 9.22415Z" fill="black"/>
<path d="M51.7364 13.4723V20.2702C51.714 20.6282 51.7528 20.9874 51.8511 21.3324C51.9183 21.4971 52.0377 21.6352 52.191 21.7254C52.4504 21.8325 52.7313 21.8769 53.011 21.855V22.1821H48.5499V21.8486C48.8741 21.8714 49.1996 21.8303 49.508 21.7275C49.6773 21.6426 49.8134 21.5035 49.8946 21.3324C50.0146 20.9919 50.0631 20.6303 50.0369 20.2702V17.0115C50.0583 16.415 50.0263 15.8178 49.9414 15.227C49.9155 15.0671 49.8334 14.9217 49.7098 14.817C49.5803 14.7337 49.4281 14.6928 49.2743 14.7002C49.0272 14.7104 48.783 14.7577 48.5499 14.8404L48.4033 14.5069L51.3371 13.4723H51.7364Z" fill="black"/>
<path d="M56.8356 15.2765C57.8922 14.0742 58.8934 13.473 59.8395 13.473C60.2845 13.4626 60.7227 13.5838 61.0992 13.8214C61.4893 14.1093 61.782 14.5096 61.9383 14.9685C62.1043 15.519 62.1761 16.0936 62.1508 16.668V20.3155C62.1242 20.7156 62.1769 21.117 62.3059 21.4966C62.3822 21.6618 62.5095 21.798 62.6691 21.8854C62.9748 21.9999 63.3016 22.047 63.6272 22.0235V22.3953H59.1661V21.9704H59.3509C59.6629 21.9976 59.9762 21.935 60.2537 21.7898C60.4334 21.6598 60.5607 21.47 60.6127 21.2545C60.6517 20.9652 60.6652 20.673 60.6531 20.3814V16.8889C60.6531 16.1142 60.5441 15.5477 60.326 15.1894C60.1135 14.841 59.7396 14.6647 59.2192 14.6647C58.4204 14.6647 57.6238 15.0676 56.8293 15.8735V20.3665C56.8293 20.9464 56.8654 21.3055 56.9397 21.4287C57.0226 21.5985 57.1572 21.7376 57.3242 21.8259C57.6431 21.9342 57.9806 21.9768 58.3163 21.9513V22.3761H53.8552V21.9513H54.0379C54.4627 21.9513 54.7559 21.8429 54.9067 21.6199C55.0576 21.3968 55.1298 20.9826 55.1298 20.3452V17.1587C55.1507 16.5298 55.128 15.9002 55.0618 15.2744C55.0415 15.1034 54.9671 14.9434 54.8494 14.8177C54.7422 14.7309 54.6067 14.687 54.4691 14.6945C54.2568 14.7038 54.048 14.752 53.853 14.8368L53.7256 14.5351L56.2599 13.473H56.8356V15.2765Z" fill="black"/>
<path d="M72.7679 9.43658V13.6853H72.4046C72.3297 12.9766 72.113 12.2903 71.7673 11.6672C71.4496 11.1574 70.9976 10.745 70.4608 10.4754C69.9188 10.1941 69.3167 10.0483 68.7061 10.0505C68.0849 10.0273 67.4778 10.2398 67.0066 10.6453C66.8019 10.8089 66.6356 11.0154 66.5196 11.2504C66.4036 11.4853 66.3407 11.7429 66.3353 12.0049C66.3381 12.3999 66.4898 12.7792 66.7602 13.0671C67.1681 13.5359 68.1375 14.1619 69.6684 14.945C70.5559 15.373 71.4114 15.8642 72.2283 16.4151C72.6681 16.7329 73.031 17.1452 73.2905 17.6217C73.5331 18.0684 73.6601 18.5686 73.6601 19.0769C73.6595 19.5536 73.5537 20.0243 73.3503 20.4554C73.1468 20.8865 72.8508 21.2674 72.4832 21.5709C71.7 22.262 70.6902 22.6076 69.4539 22.6076C69.0875 22.6097 68.7217 22.582 68.3598 22.5247C67.929 22.4334 67.5035 22.3185 67.0852 22.1806C66.6911 22.0398 66.283 21.9415 65.868 21.8874C65.7972 21.8831 65.7263 21.8931 65.6595 21.9168C65.5927 21.9406 65.5314 21.9775 65.4792 22.0255C65.3536 22.1949 65.2798 22.3971 65.2668 22.6076H64.8993V18.3589H65.2668C65.4367 19.2702 65.6683 19.9521 65.9551 20.4046C66.2819 20.8915 66.734 21.2811 67.2637 21.5327C67.8702 21.8356 68.5401 21.99 69.2181 21.983C70.0409 21.983 70.691 21.7763 71.1682 21.3627C71.5272 21.0882 71.7712 20.69 71.8529 20.2455C71.9346 19.8011 71.848 19.3421 71.6101 18.9579C71.3946 18.6033 71.1047 18.2996 70.7603 18.0678C70.504 17.8809 69.8037 17.4836 68.6594 16.8761C67.8133 16.4469 66.9977 15.96 66.2185 15.4188C65.7738 15.0993 65.3998 14.6914 65.1202 14.2206C64.8693 13.7817 64.7402 13.2837 64.7463 12.7782C64.7466 12.3281 64.8461 11.8837 65.0378 11.4765C65.2295 11.0692 65.5086 10.7093 65.8552 10.4223C66.5945 9.76515 67.5335 9.43658 68.6721 9.43658C69.4501 9.45142 70.2175 9.61962 70.9303 9.93156C71.1751 10.0533 71.4387 10.1331 71.7099 10.1674C71.8651 10.1744 72.017 10.122 72.1348 10.0208C72.2749 9.85459 72.3648 9.65197 72.394 9.43658H72.7679Z" fill="black"/>
<path d="M83.0627 19.0623C82.8177 20.184 82.339 21.0472 81.6267 21.6519C80.9185 22.2817 79.9894 22.6046 79.0433 22.5496C78.0973 22.4946 77.2117 22.0663 76.5813 21.3588L76.5643 21.3397C75.7981 20.5282 75.415 19.4313 75.415 18.049C75.415 16.7107 75.8399 15.6237 76.6897 14.7881C77.0881 14.3822 77.5649 14.0616 78.0912 13.8457C78.6175 13.6299 79.1821 13.5234 79.7508 13.5327C80.538 13.4983 81.3134 13.7328 81.9496 14.1976C82.5253 14.6416 82.812 15.1004 82.812 15.5784C82.8159 15.6856 82.7963 15.7923 82.7544 15.891C82.7126 15.9898 82.6496 16.0781 82.5699 16.1499C82.3775 16.3026 82.1352 16.3783 81.8901 16.3623C81.7261 16.3737 81.5616 16.3479 81.4089 16.2868C81.2563 16.2258 81.1194 16.131 81.0085 16.0096C80.8657 15.7877 80.7884 15.53 80.7854 15.2661C80.7783 15.1078 80.7395 14.9525 80.6713 14.8094C80.6031 14.6664 80.5068 14.5385 80.3882 14.4334C80.1098 14.2326 79.7705 14.1343 79.4279 14.1551C79.1275 14.1438 78.8284 14.1997 78.5524 14.3187C78.2764 14.4378 78.0304 14.6171 77.8326 14.8434C77.2972 15.4509 77.0295 16.2532 77.0295 17.2503C77.0124 18.2083 77.2914 19.1482 77.8283 19.9418C78.0541 20.3032 78.3691 20.6003 78.743 20.8046C79.117 21.0088 79.5372 21.1134 79.9633 21.1081C80.5976 21.109 81.2123 20.8881 81.701 20.4835C82.065 20.2003 82.419 19.6827 82.7632 18.9306L83.0627 19.0623Z" fill="black"/>
<path d="M87.2134 11.4933V15.3363C87.2134 15.3363 88.2161 13.9597 88.5644 13.7876C88.8941 13.6218 89.2576 13.5346 89.6266 13.5327C90.5259 13.5327 91.2093 13.9526 91.6766 14.7924C92.144 15.6323 92.3784 16.8729 92.3798 18.5143C92.3798 23.4216 87.4258 26.4063 87.4258 26.4063V26.0706C87.9101 25.9568 88.3575 25.7215 88.7258 25.387C89.0941 25.0525 89.3712 24.6298 89.531 24.1587C89.9347 23.1348 90.1358 21.4466 90.1343 19.0942C90.1343 17.4033 90.0288 16.2398 89.8178 15.6039C89.6054 14.9666 89.2442 14.6501 88.7344 14.6501C88.2246 14.6501 87.6722 15.075 87.0009 15.9247V19.8463C87.0009 20.6578 87.0916 21.1726 87.2728 21.3907C87.4555 21.6031 87.8592 21.7603 88.488 21.8453V22.1831H84.0268V21.8389C84.6641 21.7794 85.0763 21.6265 85.2526 21.3715C85.4289 21.1166 85.5139 20.611 85.5139 19.8441V11.4062C85.5139 10.9218 85.4416 10.6096 85.3014 10.4609C85.2288 10.3889 85.142 10.3329 85.0465 10.2964C84.9511 10.2598 84.8491 10.2435 84.747 10.2484C84.5015 10.2614 84.2594 10.3115 84.0289 10.3971L83.9121 10.0742L86.9117 9.01205H86.9924L87.2134 11.4933Z" fill="black"/>
<path d="M98.5932 13.5324C99.9656 13.5324 101.068 14.0218 101.901 15.0004C102.596 15.7988 102.974 16.8246 102.963 17.8831C102.953 18.6917 102.752 19.4865 102.377 20.2029C102.028 20.9388 101.467 21.5536 100.766 21.9683C100.072 22.3669 99.2835 22.5723 98.4828 22.5631C97.8567 22.5852 97.2345 22.4575 96.6677 22.1907C96.1009 21.924 95.606 21.5258 95.224 21.0293C94.559 20.2096 94.198 19.1851 94.2022 18.1295C94.211 17.3111 94.4242 16.5078 94.8225 15.7928C95.1856 15.0776 95.7526 14.4862 96.4519 14.0933C97.1057 13.7257 97.8431 13.5326 98.5932 13.5324ZM98.2852 14.1358C97.9117 14.1394 97.5456 14.2405 97.223 14.4289C96.8347 14.6692 96.5361 15.0305 96.3733 15.4571C96.1346 16.0564 96.0232 16.6988 96.0461 17.3435C96.0164 18.4635 96.2886 19.5707 96.8343 20.5492C97.3597 21.4457 98.0515 21.8953 98.9098 21.8981C99.2132 21.9037 99.5138 21.8395 99.7886 21.7106C100.063 21.5817 100.305 21.3915 100.495 21.1546C100.911 20.6575 101.119 19.8078 101.119 18.6054C101.119 17.0929 100.772 15.9025 100.078 15.0344C99.8729 14.7521 99.603 14.5232 99.291 14.3668C98.9791 14.2105 98.6341 14.1312 98.2852 14.1358Z" fill="black"/>
<path d="M108.739 13.5324C110.111 13.5324 111.214 14.0218 112.047 15.0004C112.742 15.7988 113.12 16.8246 113.109 17.8831C113.098 18.6917 112.897 19.4865 112.522 20.2029C112.174 20.9396 111.613 21.5552 110.912 21.9704C110.218 22.3691 109.429 22.5745 108.628 22.5652C108.002 22.5874 107.379 22.4596 106.812 22.1924C106.245 21.9253 105.749 21.5265 105.368 21.0293C104.703 20.2096 104.342 19.1851 104.346 18.1295C104.355 17.3111 104.568 16.5078 104.966 15.7928C105.329 15.0776 105.896 14.4862 106.595 14.0933C107.25 13.7254 107.988 13.5322 108.739 13.5324ZM108.422 14.1358C108.049 14.1394 107.683 14.2405 107.36 14.4289C106.972 14.6692 106.673 15.0305 106.51 15.4571C106.272 16.0564 106.16 16.6988 106.183 17.3435C106.154 18.4635 106.426 19.5707 106.971 20.5492C107.503 21.4499 108.199 21.901 109.06 21.9024C109.363 21.9079 109.664 21.8438 109.938 21.7149C110.213 21.586 110.455 21.3957 110.644 21.1589C111.061 20.6618 111.269 19.812 111.269 18.6096C111.269 17.0971 110.922 15.9068 110.228 15.0386C110.022 14.7538 109.75 14.523 109.436 14.3658C109.122 14.2086 108.774 14.1297 108.422 14.1358Z" fill="black"/>
<path d="M117.592 9.01205V20.3051L116.742 26.1513L115.892 20.3051V12.5725C115.913 11.9816 115.889 11.3901 115.82 10.8029C115.804 10.632 115.729 10.472 115.608 10.3504C115.488 10.2679 115.345 10.2262 115.2 10.2314C114.966 10.2424 114.737 10.2927 114.52 10.3801L114.346 10.053L117.152 9.01205H117.592Z" fill="black"/>
</svg>
