<svg width="817" height="816" viewBox="0 0 817 816" fill="none" xmlns="http://www.w3.org/2000/svg">
<path d="M408.123 815.265C633.523 815.265 816.246 709.77 816.246 579.636C816.246 449.501 633.523 344.006 408.123 344.006C182.723 344.006 0 449.501 0 579.636C0 709.77 182.723 815.265 408.123 815.265Z" fill="#F5F5F5"/>
<path d="M124.876 626.391C149.827 626.391 170.054 614.713 170.054 600.308C170.054 585.902 149.827 574.225 124.876 574.225C99.9254 574.225 79.6986 585.902 79.6986 600.308C79.6986 614.713 99.9254 626.391 124.876 626.391Z" fill="#E6E6E6"/>
<path d="M472.799 460.482L175.869 631.93C174.722 632.565 173.766 633.495 173.101 634.624C172.435 635.753 172.084 637.04 172.084 638.35C172.084 639.661 172.435 640.948 173.101 642.077C173.766 643.206 174.722 644.136 175.869 644.77L350.381 745.526C354.767 748.058 359.742 749.392 364.807 749.392C369.872 749.392 374.847 748.058 379.233 745.526L676.163 574.096C677.31 573.462 678.266 572.532 678.932 571.403C679.597 570.274 679.948 568.987 679.948 567.676C679.948 566.366 679.597 565.079 678.932 563.95C678.266 562.821 677.31 561.891 676.163 561.256L501.67 460.482C497.282 457.946 492.303 456.611 487.235 456.611C482.166 456.611 477.187 457.946 472.799 460.482Z" fill="#E6E6E6"/>
<path d="M383.636 462.151L264.776 530.789C262.387 532.164 260.402 534.145 259.023 536.531C257.643 538.917 256.917 541.625 256.917 544.381C256.917 547.137 257.643 549.845 259.023 552.231C260.402 554.617 262.387 556.598 264.776 557.973L324.627 592.53C328.589 594.811 333.08 596.012 337.651 596.012C342.222 596.012 346.713 594.811 350.674 592.53L469.552 523.892C471.936 522.514 473.916 520.532 475.292 518.146C476.668 515.761 477.393 513.055 477.393 510.301C477.393 507.546 476.668 504.841 475.292 502.455C473.916 500.069 471.936 498.088 469.552 496.709L409.682 462.151C405.724 459.862 401.232 458.656 396.659 458.656C392.086 458.656 387.594 459.862 383.636 462.151Z" fill="#E6E6E6"/>
<path d="M127.261 532.88C127.261 532.88 99.3434 505.605 115.228 459.932C124.124 434.344 153.638 415.543 170.439 413.782C164.877 420.391 160.439 427.871 157.306 435.921L136.139 449.99L155.6 443.9L151.455 460.555C151.455 460.555 133.369 471.561 130.691 473.872L150.189 468.681C150.189 468.681 148.685 515.858 127.261 532.88Z" fill="#BA68C8"/>
<path opacity="0.4" d="M127.261 532.88C127.261 532.88 99.3434 505.605 115.228 459.932C124.124 434.344 153.638 415.543 170.439 413.782C164.877 420.391 160.439 427.871 157.306 435.921L136.139 449.99L155.6 443.9L151.455 460.555C151.455 460.555 133.369 471.561 130.691 473.872L150.189 468.681C150.189 468.681 148.685 515.858 127.261 532.88Z" fill="black"/>
<path d="M127.261 532.88C127.261 532.88 112.807 475.817 134.195 442.543C134.195 442.47 109.139 471.836 127.261 532.88Z" fill="white"/>
<path d="M159.214 540.529L125.041 540.089H124.693L90.5391 540.529C90.5391 540.529 90.1539 582.607 103.122 599.721C106.791 604.288 115.1 607.48 124.876 607.48C134.653 607.48 143.072 604.27 146.649 599.702C159.581 582.57 159.214 540.529 159.214 540.529Z" fill="#37474F"/>
<path d="M124.876 558.963C143.84 558.963 159.214 550.71 159.214 540.529C159.214 530.348 143.84 522.095 124.876 522.095C105.912 522.095 90.5391 530.348 90.5391 540.529C90.5391 550.71 105.912 558.963 124.876 558.963Z" fill="#455A64"/>
<path d="M124.876 535.632C136.689 535.632 146.686 539.429 150.208 544.675C151.076 543.464 151.556 542.019 151.583 540.529C151.583 533.192 139.624 527.341 124.876 527.341C110.129 527.341 98.1329 533.247 98.1329 540.529C98.1637 542.015 98.6362 543.458 99.4903 544.675C103.049 539.429 113.064 535.632 124.876 535.632Z" fill="#263238"/>
<path d="M124.876 553.717C138.866 553.717 150.208 549.669 150.208 544.675C150.208 539.68 138.866 535.632 124.876 535.632C110.886 535.632 99.5453 539.68 99.5453 544.675C99.5453 549.669 110.886 553.717 124.876 553.717Z" fill="#E0E0E0"/>
<path d="M125.298 546.949C125.298 546.949 112.055 546.436 100.719 528.863C96.0235 521.618 93.7674 517.858 93.7674 517.858L112.11 516.482L91.4562 511.328L81.6979 496.397L98.8483 495.113C98.8483 495.113 86.0084 490.637 76.9655 490.582C76.9655 490.582 61.1359 462.647 56.5135 458.666C68.4755 459.401 80.1688 462.526 90.9024 467.857C101.636 473.187 111.192 480.615 119.007 489.702C145.09 520.389 129.15 547.738 125.298 546.949Z" fill="#BA68C8"/>
<path d="M125.298 546.949C125.298 546.949 133.571 497.094 80.7625 467.122C80.7625 467.122 135.57 493.444 125.298 546.949Z" fill="white"/>
<path d="M125.298 546.949C125.298 546.949 137.276 547.719 149.144 532.935C154.041 526.846 156.481 523.617 156.481 523.617L139.972 520.646L159.085 517.931L169.302 505.366L153.949 502.597C153.949 502.597 165.891 499.772 174.126 500.579C174.126 500.579 191.038 476.844 195.587 473.689C184.725 473.23 173.881 474.953 163.695 478.756C153.51 482.558 144.19 488.363 136.286 495.828C109.927 521.123 121.74 547.298 125.298 546.949Z" fill="#BA68C8"/>
<path opacity="0.2" d="M125.298 546.949C125.298 546.949 137.276 547.719 149.144 532.935C154.041 526.846 156.481 523.617 156.481 523.617L139.972 520.646L159.085 517.931L169.302 505.366L153.949 502.597C153.949 502.597 165.891 499.772 174.126 500.579C174.126 500.579 191.038 476.844 195.587 473.689C184.725 473.23 173.881 474.953 163.695 478.756C153.51 482.558 144.19 488.363 136.286 495.828C109.927 521.123 121.74 547.298 125.298 546.949Z" fill="black"/>
<path d="M125.298 546.949C125.298 546.949 122.51 501.203 172.989 479.081C172.989 479.118 121.061 497.718 125.298 546.949Z" fill="white"/>
<path d="M186.012 141.082V232.208L107.084 277.771V186.645L186.012 141.082Z" fill="#FAFAFA"/>
<path d="M177.465 146.017V227.274L107.084 267.903V186.645L177.465 146.017ZM181.739 138.679L102.865 184.243V275.369L107.139 277.845L186.012 232.282V141.082L181.739 138.606V138.679Z" fill="#E0E0E0"/>
<path d="M181.739 148.474V229.732L111.358 270.361V189.103L181.739 148.474ZM186.012 141.137L107.139 186.7V277.826L186.012 232.263V141.082V141.137Z" fill="#EBEBEB"/>
<path d="M174.42 211.353L114.715 245.819L132.36 199.944L144.576 214.435L157.068 196.661L174.42 211.353Z" fill="#E0E0E0"/>
<path d="M153.711 182.72C153.603 184.617 153.049 186.462 152.092 188.103C151.136 189.745 149.805 191.137 148.208 192.167C145.2 193.891 142.705 192.497 142.705 189.012C142.816 187.118 143.372 185.277 144.328 183.639C145.284 182 146.614 180.611 148.208 179.584C151.326 177.841 153.711 179.253 153.711 182.72Z" fill="#E0E0E0"/>
<path d="M212.334 27.6334V100.215L149.474 136.515V63.9151L212.334 27.6334Z" fill="#FAFAFA"/>
<path d="M205.529 31.5587V96.3264L149.492 128.664V63.9151L205.547 31.5587M208.959 25.6524L146.062 61.9524V134.552L149.474 136.515L212.334 100.215V27.6151L208.941 25.6524H208.959Z" fill="#E0E0E0"/>
<path d="M208.941 33.5213V98.2524L152.867 130.627V65.8777L208.941 33.5213ZM212.334 27.615L149.492 63.915V136.515L212.352 100.215V27.615H212.334Z" fill="#EBEBEB"/>
<path d="M203.108 83.615L155.545 111.074L169.596 74.517L179.336 86.0729L189.277 71.894L203.108 83.615Z" fill="#E0E0E0"/>
<path d="M186.618 60.7968C186.537 62.3043 186.102 63.7714 185.346 65.0783C184.591 66.3853 183.537 67.4952 182.271 68.3172C179.868 69.7113 177.942 68.574 177.942 65.8226C178.019 64.3165 178.451 62.8498 179.203 61.5428C179.956 60.2357 181.007 59.1252 182.271 58.3022C184.673 56.9081 186.618 58.0454 186.618 60.7968Z" fill="#E0E0E0"/>
<path d="M346.033 447.275L371.548 602.986C371.735 604.125 372.321 605.159 373.202 605.906C374.082 606.652 375.199 607.06 376.354 607.058C377.036 607.057 377.711 606.912 378.334 606.633C378.957 606.354 379.514 605.947 379.969 605.438C380.424 604.929 380.767 604.33 380.975 603.68C381.183 603.03 381.252 602.344 381.178 601.665L363.275 441.021L346.033 447.275Z" fill="#263238"/>
<path d="M434.114 394.907L459.647 550.618C459.831 551.755 460.413 552.79 461.291 553.536C462.168 554.282 463.283 554.691 464.435 554.69C465.119 554.689 465.795 554.544 466.42 554.263C467.044 553.983 467.602 553.574 468.057 553.064C468.513 552.553 468.855 551.952 469.062 551.299C469.269 550.647 469.336 549.959 469.259 549.279L451.356 388.652L434.114 394.907Z" fill="#263238"/>
<path d="M306.872 410.865L281.687 545.041C281.519 545.982 281.023 546.833 280.288 547.444C279.553 548.055 278.626 548.386 277.67 548.38C277.082 548.378 276.501 548.25 275.967 548.004C275.433 547.759 274.957 547.401 274.573 546.956C274.189 546.511 273.904 545.988 273.739 545.424C273.574 544.859 273.532 544.266 273.616 543.684L292.216 419.321L306.872 410.865Z" fill="#263238"/>
<path d="M395.943 360.808L370.906 494.159C370.737 495.1 370.242 495.951 369.507 496.561C368.772 497.172 367.844 497.504 366.889 497.497C366.302 497.495 365.723 497.368 365.191 497.123C364.658 496.878 364.183 496.523 363.799 496.08C363.415 495.637 363.131 495.116 362.964 494.554C362.798 493.992 362.754 493.401 362.835 492.82L381.288 369.246L395.943 360.808Z" fill="#263238"/>
<path d="M388.68 350.647C382.906 348.092 377.914 344.051 374.211 338.938C370.509 333.824 368.229 327.819 367.604 321.537C363.55 280.67 349.151 196.477 300.397 224.505C240.196 259.099 261.749 359.561 270.498 391.771C272.443 399.027 276.235 405.657 281.504 411.012C292.381 422.018 314.887 440.837 353.187 456.869C357.885 458.831 363.11 459.142 368.008 457.749C387.029 452.338 436.719 435.738 461.555 404.005C462.961 402.206 463.599 399.925 463.331 397.658C463.063 395.39 461.911 393.321 460.124 391.899C450.091 383.938 427.401 367.925 388.68 350.647Z" fill="#BA68C8"/>
<path opacity="0.5" d="M388.68 350.647C382.906 348.092 377.914 344.051 374.211 338.938C370.509 333.824 368.229 327.819 367.604 321.537C363.55 280.67 349.151 196.477 300.397 224.505C240.196 259.099 261.749 359.561 270.498 391.771C272.443 399.027 276.235 405.657 281.504 411.012C292.381 422.018 314.887 440.837 353.187 456.869C357.885 458.831 363.11 459.142 368.008 457.749C387.029 452.338 436.719 435.738 461.555 404.005C462.961 402.206 463.599 399.925 463.331 397.658C463.063 395.39 461.911 393.321 460.124 391.899C450.091 383.938 427.401 367.925 388.68 350.647Z" fill="black"/>
<path d="M463.352 398.264C463.459 400.343 462.808 402.39 461.518 404.024C460.197 405.729 458.785 407.362 457.336 408.976C456.529 409.857 455.722 410.719 454.878 411.562C454.053 412.406 453.209 413.232 452.347 414.057L449.742 416.478C448.843 417.267 447.908 418.056 447.009 418.826C432.94 430.62 415.827 439.608 400.657 446.083L397.833 447.275L397.539 447.385L394.935 448.449L394.476 448.614L392.055 449.568L391.504 449.788L389.248 450.632L388.588 450.871L386.497 451.641L385.745 451.916L383.819 452.595L383.03 452.87L381.196 453.475L380.334 453.769L378.72 454.301L377.803 454.612L376.353 455.071L375.363 455.383L374.116 455.786L373.052 456.098L372.006 456.428L370.704 456.814L370.044 456.997C369.42 457.199 368.796 457.364 368.209 457.529C363.312 458.922 358.087 458.611 353.389 456.649C315.089 440.599 292.583 421.798 281.706 410.792C276.437 405.436 272.645 398.807 270.7 391.551C261.951 359.341 240.398 258.879 300.599 224.284C301.662 223.685 302.708 223.135 303.735 222.634L304.414 222.303C305.441 221.826 306.432 221.386 307.422 221.001L307.715 220.891C308.651 220.543 309.55 220.231 310.504 219.974L310.925 219.846C311.916 219.57 312.888 219.35 313.842 219.167H314.099C315.999 218.827 317.93 218.692 319.858 218.763H319.968C321.829 218.833 323.675 219.116 325.471 219.607C315.86 215.37 304.12 215.553 292.454 222.248C232.254 256.843 253.807 357.305 262.556 389.515L264.042 395.017C267.027 406.197 273.632 416.072 282.825 423.1L298.452 435.041C315.238 447.838 333.604 458.417 353.095 466.517C357.806 468.502 363.052 468.825 367.971 467.434C386.974 462.023 436.701 445.423 461.518 413.69C462.59 412.339 463.229 410.696 463.352 408.976V398.246V398.264Z" fill="#BA68C8"/>
<path opacity="0.6" d="M463.352 398.264C463.459 400.343 462.808 402.39 461.518 404.024C460.197 405.729 458.785 407.362 457.336 408.976C456.529 409.857 455.722 410.719 454.878 411.562C454.053 412.406 453.209 413.232 452.347 414.057L449.742 416.478C448.843 417.267 447.908 418.056 447.009 418.826C432.94 430.62 415.827 439.608 400.657 446.083L397.833 447.275L397.539 447.385L394.935 448.449L394.476 448.614L392.055 449.568L391.504 449.788L389.248 450.632L388.588 450.871L386.497 451.641L385.745 451.916L383.819 452.595L383.03 452.87L381.196 453.475L380.334 453.769L378.72 454.301L377.803 454.612L376.353 455.071L375.363 455.383L374.116 455.786L373.052 456.098L372.006 456.428L370.704 456.814L370.044 456.997C369.42 457.199 368.796 457.364 368.209 457.529C363.312 458.922 358.087 458.611 353.389 456.649C315.089 440.599 292.583 421.798 281.706 410.792C276.437 405.436 272.645 398.807 270.7 391.551C261.951 359.341 240.398 258.879 300.599 224.284C301.662 223.685 302.708 223.135 303.735 222.634L304.414 222.303C305.441 221.826 306.432 221.386 307.422 221.001L307.715 220.891C308.651 220.543 309.55 220.231 310.504 219.974L310.925 219.846C311.916 219.57 312.888 219.35 313.842 219.167H314.099C315.999 218.827 317.93 218.692 319.858 218.763H319.968C321.829 218.833 323.675 219.116 325.471 219.607C315.86 215.37 304.12 215.553 292.454 222.248C232.254 256.843 253.807 357.305 262.556 389.515L264.042 395.017C267.027 406.197 273.632 416.072 282.825 423.1L298.452 435.041C315.238 447.838 333.604 458.417 353.095 466.517C357.806 468.502 363.052 468.825 367.971 467.434C386.974 462.023 436.701 445.423 461.518 413.69C462.59 412.339 463.229 410.696 463.352 408.976V398.246V398.264Z" fill="black"/>
<path d="M496.553 513.217C492.444 487.005 487.18 445.111 484.171 420.348C483.976 418.722 483.701 417.108 483.346 415.506C481.763 408.671 478.796 402.234 474.628 396.59C470.461 390.946 465.181 386.216 459.115 382.691L397.374 346.006L355.461 323.995C355.461 323.995 344.309 356.314 357.296 376.088C368.081 392.596 415.698 412.92 429.859 419.798C444.019 426.677 444.313 428.529 444.019 437.719C443.726 446.909 443.708 458.611 461.096 495.26C466.104 505.788 469.589 513.602 472.01 519.71C480.69 520.381 489.341 518.093 496.553 513.217Z" fill="#BA68C8"/>
<path opacity="0.7" d="M496.553 513.217C492.444 487.005 487.18 445.111 484.171 420.348C483.877 417.916 483.411 415.507 482.777 413.14C479.166 400.332 470.713 389.432 459.207 382.746L397.374 345.933L355.461 323.921C355.461 323.921 344.309 356.241 357.296 376.014C368.081 392.523 415.698 412.846 429.859 419.725C444.019 426.603 444.313 428.456 444.019 437.645C443.726 446.835 443.708 458.538 461.096 495.186C466.104 505.715 469.589 513.529 472.01 519.637C480.681 520.329 489.331 518.067 496.553 513.217Z" fill="black"/>
<path d="M477.458 540.969C477.431 542.057 477.691 543.132 478.21 544.088C480.671 548.246 483.808 551.966 487.491 555.093C495.819 562.595 523.388 591.962 533.073 573.729C533.073 573.729 504.587 546.454 500.826 535.21C498.962 527.965 497.535 520.615 496.552 513.199C489.317 518.044 480.652 520.294 471.973 519.582C477.311 532.88 477.55 537.191 477.458 540.969Z" fill="#FFA8A7"/>
<path d="M507.173 539.172L506.384 536.806C506.067 535.937 505.434 535.22 504.611 534.798C503.788 534.376 502.836 534.281 501.945 534.531L490.408 538.09C489.683 538.313 489.05 538.764 488.601 539.375C488.152 539.986 487.911 540.725 487.913 541.483V542.639C487.908 543.185 487.688 543.708 487.3 544.092C486.911 544.477 486.387 544.693 485.84 544.693C483.397 544.694 481.03 543.845 479.145 542.29L477.531 540.969V536.934C476.491 537.613 475.647 538.553 475.084 539.66C474.52 540.768 474.257 542.003 474.321 543.244C474.468 545.977 474.596 549.315 474.486 550.581C474.303 553.002 472.047 563.091 474.743 566.08C477.44 569.07 483.493 569.419 490.976 568.612C498.46 567.805 506.641 575.16 513.574 577.893C520.508 580.626 549.233 586.496 549.159 568.135C549.159 563.457 544.518 561.55 539.988 559.899C535.457 558.248 519.059 552.47 514.858 549.003C513.17 547.599 511.606 546.052 510.181 544.381C508.844 542.861 507.821 541.09 507.173 539.172Z" fill="#455A64"/>
<path d="M513.501 577.948C506.568 575.215 498.387 567.86 490.903 568.667C483.419 569.474 477.366 569.125 474.67 566.135C473.806 564.894 473.356 563.411 473.386 561.898C473.257 564.723 473.478 567.401 474.67 568.758C477.366 571.748 483.419 572.097 490.903 571.29C498.387 570.483 506.568 577.856 513.501 580.571C520.435 583.286 549.159 589.174 549.086 570.813C549.067 570.548 549.03 570.284 548.976 570.024C547.178 586.074 520.196 580.571 513.501 577.948Z" fill="#263238"/>
<path d="M440.479 545.023C436.352 518.83 431.106 476.935 428.08 452.155C426.499 439.133 420.067 427.187 410.067 418.698L335.981 355.709L296.38 354.957C296.38 354.957 288.217 387.974 301.167 407.729C311.971 424.237 359.57 444.579 373.731 451.439C387.891 458.299 388.185 460.189 387.891 469.36C387.598 478.531 387.579 490.252 404.986 526.901C409.976 537.448 413.461 545.243 415.882 551.351C424.56 552.075 433.228 549.845 440.479 545.023Z" fill="#BA68C8"/>
<path opacity="0.7" d="M440.479 545.023C436.352 518.83 431.106 476.935 428.08 452.155C426.499 439.133 420.067 427.187 410.067 418.698L335.981 355.709L296.38 354.957C296.38 354.957 288.217 387.974 301.167 407.729C311.971 424.237 359.57 444.579 373.731 451.439C387.891 458.299 388.185 460.189 387.891 469.36C387.598 478.531 387.579 490.252 404.986 526.901C409.976 537.448 413.461 545.243 415.882 551.351C424.56 552.075 433.228 549.845 440.479 545.023Z" fill="black"/>
<path d="M421.348 570.409C421.348 571.51 420.596 574.756 422.118 575.912C424.063 577.361 425.915 582.002 431.418 586.918C439.727 594.42 448.513 578.26 444.735 567.053C442.881 559.806 441.46 552.456 440.479 545.042C433.235 549.882 424.566 552.132 415.882 551.425C421.238 564.668 421.458 566.649 421.348 570.409Z" fill="#FFA8A7"/>
<path d="M372.391 218.341C378.059 217.441 383.862 218.58 388.769 221.556C393.676 224.532 397.368 229.151 399.19 234.593C401.806 242.451 403.487 250.59 404.198 258.842C406.344 284.246 406.931 296.939 406.931 296.939L432.445 308.514C432.445 308.514 418.67 309.174 419.605 328.69L387.818 320.675L372.391 218.341Z" fill="#FFA8A7"/>
<path d="M407.866 281.587C404.106 254.073 402.62 239.674 399.392 232.85C397.176 227.75 393.307 223.544 388.409 220.912C383.51 218.279 377.868 217.374 372.391 218.341L382.003 293.913L383.232 293.803C391.744 292.963 399.761 289.414 406.105 283.678L407.866 281.587Z" fill="#BA68C8"/>
<path opacity="0.2" d="M407.866 281.587C404.106 254.073 402.62 239.674 399.392 232.85C397.176 227.75 393.307 223.544 388.409 220.912C383.51 218.279 377.868 217.374 372.391 218.341L382.003 293.913L383.232 293.803C391.744 292.963 399.761 289.414 406.105 283.678L407.866 281.587Z" fill="black"/>
<path d="M406.931 296.939C404.064 297.821 401.47 299.418 399.392 301.58C399.392 301.58 402.473 295.729 406.729 293.913L406.931 296.939Z" fill="#F28F8F"/>
<path d="M311.09 240.628L339.632 226.797L363.147 218.672C363.147 218.672 382.003 212.674 386.809 237.785C390.789 258.42 391.303 336.835 391.303 336.835L390.881 345.401C390.881 345.401 380.004 375.886 341.136 378.417C302.268 380.949 294.692 364.55 294.692 364.55C294.692 364.55 290.73 260.786 311.09 240.628Z" fill="#BA68C8"/>
<path d="M401.024 156.857C401.024 156.857 409.847 179.473 397.668 189.433C385.488 199.393 389.78 159.297 389.78 159.297L401.024 156.857Z" fill="#263238"/>
<path d="M477.476 286.154L206.354 442.69V476.605V641.413C206.367 642.067 206.568 642.704 206.932 643.247C207.296 643.79 207.809 644.217 208.409 644.477C209.959 645.269 211.675 645.682 213.416 645.682C215.157 645.682 216.873 645.269 218.424 644.477C219.02 644.214 219.529 643.786 219.89 643.243C220.251 642.7 220.448 642.065 220.46 641.413V484.768L367.457 569.565V735.988C367.474 736.639 367.676 737.271 368.04 737.81C368.404 738.35 368.914 738.774 369.512 739.033C371.062 739.825 372.778 740.238 374.519 740.238C376.26 740.238 377.976 739.825 379.527 739.033C380.124 738.774 380.635 738.35 380.999 737.81C381.363 737.271 381.565 736.639 381.581 735.988V569.565L631.462 425.301V583.047C631.483 583.699 631.691 584.332 632.062 584.868C632.433 585.405 632.951 585.824 633.553 586.074C635.104 586.866 636.82 587.279 638.561 587.279C640.302 587.279 642.018 586.866 643.568 586.074C644.167 585.817 644.679 585.393 645.043 584.853C645.408 584.313 645.609 583.68 645.623 583.029V383.26L477.476 286.154Z" fill="#455A64"/>
<path d="M379.527 739.07C377.976 739.862 376.26 740.275 374.519 740.275C372.778 740.275 371.062 739.862 369.512 739.07C366.742 737.474 366.742 734.887 369.512 733.292C371.062 732.5 372.778 732.086 374.519 732.086C376.26 732.086 377.976 732.5 379.527 733.292C382.296 734.887 382.296 737.474 379.527 739.07Z" fill="#455A64"/>
<path d="M381.618 565.512H367.457V736.025H381.618V565.512Z" fill="#37474F"/>
<path d="M213.453 645.687C217.363 645.687 220.533 643.856 220.533 641.597C220.533 639.338 217.363 637.506 213.453 637.506C209.542 637.506 206.373 639.338 206.373 641.597C206.373 643.856 209.542 645.687 213.453 645.687Z" fill="#455A64"/>
<path d="M220.533 470.937H206.373V641.45H220.533V470.937Z" fill="#263238"/>
<path d="M643.568 586.074C642.018 586.866 640.302 587.279 638.561 587.279C636.82 587.279 635.104 586.866 633.553 586.074C630.784 584.478 630.784 581.892 633.553 580.296C635.104 579.504 636.82 579.091 638.561 579.091C640.302 579.091 642.018 579.504 643.568 580.296C646.338 581.91 646.338 584.496 643.568 586.074Z" fill="#455A64"/>
<path d="M645.66 412.535H631.499V583.047H645.66V412.535Z" fill="#37474F"/>
<path d="M470.488 457.052C469.095 457.758 467.555 458.126 465.994 458.126C464.432 458.126 462.893 457.758 461.5 457.052C459.024 455.621 459.024 453.383 461.5 451.879C462.89 451.165 464.431 450.792 465.994 450.792C467.557 450.792 469.097 451.165 470.488 451.879C472.891 453.31 472.891 455.621 470.488 457.052Z" fill="#455A64"/>
<path d="M472.285 312.035H459.574V454.337H472.285V312.035Z" fill="#455A64"/>
<path d="M206.354 442.69V476.605L374.538 573.711V539.777L206.354 442.69Z" fill="#263238"/>
<path d="M645.66 383.26L374.538 539.777V573.711L645.66 417.175V383.26Z" fill="#37474F"/>
<path d="M477.476 286.154L206.354 442.69L374.538 539.777L645.66 383.26L477.476 286.154Z" fill="#455A64"/>
<path d="M341.466 391.789L403.134 427.392L505.65 368.09L444.001 331.772L341.466 391.789Z" fill="#EBEBEB"/>
<path d="M396.494 381.646L419.624 368.292L405.133 359.928L382.003 373.281L396.494 381.646Z" fill="#E0E0E0"/>
<path d="M405.757 418.496L374.593 400.153L435.49 363.285L405.757 418.496Z" fill="#E0E0E0"/>
<path d="M423.2 304.111L447.871 315.686C455.242 317.545 462.51 319.792 469.644 322.417C469.644 322.417 486.813 329.424 487.601 334.028C488.39 338.632 474.762 349.73 462.71 344.337C459.561 342.649 456.19 341.414 452.695 340.668C449.485 340.32 439.856 338.834 432.977 332.212L404.198 324.729C404.198 324.729 402.767 306.973 423.2 304.111Z" fill="#FFA8A7"/>
<path d="M439.177 338.449C442.02 341.512 450.182 349.234 452.017 351.472C453.851 353.71 457.996 347.969 450.641 339.403C444.274 337.071 438.285 333.814 432.867 329.736C434.744 332.797 436.854 335.71 439.177 338.449Z" fill="#FFA8A7"/>
<path d="M368.906 191.359H339.632V226.797H368.906V191.359Z" fill="#FFA8A7"/>
<path d="M368.925 226.797C362.954 224.569 357.497 221.152 352.885 216.754C348.272 212.356 344.6 207.068 342.09 201.209V191.359H368.998L368.925 226.797Z" fill="#F28F8F"/>
<path d="M378.775 144.567C378.775 144.567 405.408 147.777 399.3 193.285C396.475 214.324 390.844 224.963 374.629 223.165C356.287 221.111 330.846 206.841 334.789 170.779C338.733 134.717 378.775 144.567 378.775 144.567Z" fill="#FFA8A7"/>
<path d="M380.26 185.141L379.307 200.861L388.68 198.605L380.26 185.141Z" fill="#F28F8F"/>
<path d="M366.32 183.729C366.281 184.363 366.431 184.994 366.751 185.543C367.072 186.091 367.547 186.533 368.118 186.811C368.689 187.089 369.33 187.191 369.959 187.105C370.588 187.019 371.178 186.748 371.653 186.327C372.129 185.906 372.468 185.353 372.629 184.738C372.79 184.124 372.765 183.476 372.558 182.875C372.35 182.275 371.969 181.75 371.462 181.366C370.956 180.983 370.348 180.758 369.713 180.721C368.865 180.671 368.031 180.959 367.395 181.523C366.759 182.087 366.372 182.88 366.32 183.729Z" fill="#263238"/>
<path d="M387.506 182.793C387.467 183.427 387.617 184.057 387.937 184.605C388.256 185.153 388.731 185.594 389.301 185.873C389.871 186.151 390.51 186.254 391.139 186.17C391.768 186.085 392.357 185.816 392.833 185.396C393.309 184.977 393.649 184.426 393.812 183.813C393.975 183.199 393.953 182.552 393.748 181.952C393.543 181.351 393.165 180.825 392.661 180.44C392.157 180.054 391.551 179.826 390.918 179.785C390.496 179.758 390.073 179.814 389.673 179.951C389.273 180.087 388.904 180.301 388.587 180.581C388.27 180.86 388.011 181.2 387.826 181.579C387.64 181.959 387.531 182.372 387.506 182.793Z" fill="#263238"/>
<path d="M395.026 176.557L388.992 172.448C388.992 172.448 391.541 170.1 393.852 171.751C394.509 172.341 394.972 173.115 395.182 173.973C395.391 174.83 395.337 175.731 395.026 176.557Z" fill="#263238"/>
<path d="M368.54 175.842L362.028 179.107C362.028 179.107 361.221 175.732 363.77 174.539C364.604 174.249 365.506 174.218 366.357 174.45C367.208 174.683 367.969 175.168 368.54 175.842Z" fill="#263238"/>
<path d="M379.765 207.244C376.1 207.28 372.528 206.085 369.622 203.851C369.622 203.851 368.595 209.243 373.07 210.546C377.546 211.848 379.765 207.244 379.765 207.244Z" fill="#F28F8F"/>
<path d="M339.32 184.774C339.32 184.774 343.41 193.304 345.941 193.01C348.473 192.717 345.941 160.342 351.187 160.14C356.433 159.939 381.196 172.228 403.079 156.362C411.498 150.272 413.167 134.717 408.123 136.185C403.079 137.652 396.274 142.073 387.084 141.449C377.894 140.826 345.721 125.895 337.742 146.952C337.742 146.952 319.95 145.503 326.627 180.831C328.296 189.617 333.542 211.371 339.632 213.517L339.32 184.774Z" fill="#263238"/>
<path d="M340.769 192.552C340.87 189.884 340.375 187.227 339.32 184.774C338.792 183.264 337.836 181.94 336.569 180.963C335.302 179.987 333.779 179.399 332.184 179.272C323.967 179.051 322.848 186.975 323.013 189.782C323.307 197.119 329.305 205.19 340.457 205.502L340.769 192.552Z" fill="#FFA8A7"/>
<path d="M343.3 351.124L364.284 367.797C367.872 368.135 371.429 368.749 374.923 369.631C378.94 370.823 389.468 374.694 392.256 375.299C395.045 375.904 391.449 380.802 384.149 378.968C384.149 378.968 399.447 389.441 399.245 394.1C399.043 398.759 383.342 406.72 372.74 398.906C370.008 396.623 366.978 394.723 363.734 393.256C360.652 392.248 351.609 388.744 346.235 380.82L327.892 371.264C327.892 371.264 322.72 349.601 343.3 351.124Z" fill="#FFA8A7"/>
<path d="M320.409 236.115C320.409 236.115 332.643 245.598 325.123 275.075C317.602 304.552 313.585 329.956 313.585 329.956L343.3 351.123C339.232 352.905 335.684 355.691 332.988 359.22C330.293 362.75 328.54 366.907 327.892 371.3C327.892 371.3 281.045 352.958 280.092 341.053C279.138 329.149 289.868 278.047 291.501 268.637C293.133 259.227 301.461 240.573 320.409 236.115Z" fill="#FFA8A7"/>
<path d="M313.585 329.956C309.881 329.23 306.067 329.267 302.378 330.066C305.894 328.157 309.841 327.178 313.842 327.223L313.585 329.956Z" fill="#F28F8F"/>
<path d="M520.013 300.168L509.282 370.328C509.298 370.37 509.298 370.415 509.282 370.457L402.62 432.216C402.594 432.229 402.564 432.235 402.534 432.233C402.505 432.231 402.476 432.221 402.452 432.204C402.427 432.188 402.408 432.164 402.396 432.137C402.383 432.11 402.378 432.081 402.382 432.051L412.782 364C413.003 362.549 413.537 361.164 414.348 359.941C415.159 358.719 416.227 357.687 417.478 356.92L515.17 297.013C515.683 296.677 516.283 296.497 516.896 296.496C517.509 296.495 518.109 296.673 518.623 297.008C519.136 297.342 519.541 297.819 519.788 298.381C520.035 298.942 520.113 299.563 520.013 300.168Z" fill="#FAFAFA"/>
<path d="M402.62 432.216L345.758 399.199C344.447 398.438 343.359 397.347 342.603 396.033C341.847 394.72 341.448 393.231 341.448 391.716L403.115 427.319L402.62 432.216Z" fill="#E0E0E0"/>
<path d="M458.327 367.797C458.327 372.823 461.848 374.84 466.177 372.346C468.467 370.856 470.372 368.847 471.74 366.482C473.107 364.117 473.897 361.463 474.046 358.736C474.046 353.71 470.524 351.692 466.177 354.187C463.893 355.681 461.993 357.691 460.629 360.056C459.265 362.42 458.476 365.072 458.327 367.797Z" fill="#E0E0E0"/>
<path d="M340.567 157.242C340.567 157.242 335.725 150.089 338.733 147.777C341.741 145.466 343.924 152.822 340.567 157.242Z" fill="#263238"/>
<path d="M341.374 158.691C341.374 158.691 332.826 157.627 333.028 153.885C333.23 150.144 340.255 153.298 341.374 158.691Z" fill="#263238"/>
<path d="M339.632 226.797C339.632 226.797 345.923 243.306 360.414 241.251C374.904 239.197 368.925 226.797 368.925 226.797H339.632Z" fill="#FFA8A7"/>
<path d="M320.408 236.115C320.408 236.115 329.947 240.683 328.479 259.869C327.012 279.055 319.436 317.722 319.436 317.722C319.436 317.722 285.301 331.552 282.036 312.054C281.21 307.009 289.813 260.364 297.168 250.496C299.869 246.652 303.32 243.396 307.315 240.924C311.309 238.453 315.764 236.817 320.408 236.115Z" fill="#BA68C8"/>
<path opacity="0.2" d="M320.408 236.115C320.408 236.115 329.947 240.683 328.479 259.869C327.012 279.055 319.436 317.722 319.436 317.722C319.436 317.722 285.301 331.552 282.036 312.054C281.21 307.009 289.813 260.364 297.168 250.496C299.869 246.652 303.32 243.396 307.315 240.924C311.309 238.453 315.764 236.817 320.408 236.115Z" fill="black"/>
<path d="M422.118 571.4C423.399 573.341 425.364 574.729 427.621 575.288C429.694 575.619 425.512 570.244 430.501 568.08C435.49 565.915 446.917 562.962 447.945 567.254L449.21 572.61C450.403 577.674 452.822 582.366 456.254 586.276C459.584 590.307 463.377 593.933 467.553 597.079C474.083 601.28 484.813 611.46 471.038 620.136C457.263 628.812 440.351 621.475 437.031 611.625C433.711 601.775 430.207 598.914 428.446 597.281C424.736 594.678 422.092 590.821 420.999 586.422C420.105 582.064 419.492 577.653 419.165 573.216C419.096 572.32 419.271 571.422 419.672 570.618C420.072 569.814 420.683 569.133 421.44 568.648L422.118 571.4Z" fill="#455A64"/>
<path d="M471.111 620.099C457.336 628.757 440.424 621.438 437.104 611.588C433.784 601.738 430.281 598.877 428.52 597.244C425.41 594.996 423.021 591.893 421.641 588.312C421.641 588.568 421.641 588.862 421.641 589.119C422.173 597.648 427.401 599.647 429.162 601.298C430.923 602.949 433.821 605.627 437.141 615.495C440.461 625.364 457.923 631.49 471.68 622.832C478.375 618.632 479.274 614.065 477.696 609.993C478.027 613.313 476.339 616.816 471.111 620.099Z" fill="#263238"/>
<path d="M404.931 489.152L361.056 514.538L305.661 482.548L349.683 457.162C350.26 456.838 350.911 456.667 351.573 456.667C352.235 456.667 352.885 456.838 353.462 457.162L404.986 486.914C405.177 487.034 405.334 487.202 405.441 487.401C405.547 487.6 405.601 487.823 405.595 488.048C405.59 488.274 405.525 488.494 405.409 488.688C405.293 488.881 405.128 489.041 404.931 489.152Z" fill="#BA68C8"/>
<path opacity="0.7" d="M404.931 489.152L361.056 514.538L305.661 482.548L349.683 457.162C350.26 456.838 350.911 456.667 351.573 456.667C352.235 456.667 352.885 456.838 353.462 457.162L404.986 486.914C405.177 487.034 405.334 487.202 405.441 487.401C405.547 487.6 405.601 487.823 405.595 488.048C405.59 488.274 405.525 488.494 405.409 488.688C405.293 488.881 405.128 489.041 404.931 489.152Z" fill="black"/>
<path d="M401.886 488.235L361.056 511.805L309.495 482.053L350.417 458.428C350.947 458.113 351.552 457.947 352.169 457.947C352.785 457.947 353.39 458.113 353.921 458.428L401.886 486.107C402.073 486.215 402.228 486.37 402.336 486.557C402.443 486.743 402.5 486.955 402.5 487.171C402.5 487.386 402.443 487.598 402.336 487.785C402.228 487.971 402.073 488.127 401.886 488.235Z" fill="white"/>
<path d="M361.056 511.805V507.201L402.51 483.282V487.189L361.056 511.805Z" fill="white"/>
<path d="M361.056 511.805V507.201L309.495 477.449V482.053L361.056 511.805Z" fill="#E0E0E0"/>
<path d="M404.931 481.869L361.056 507.201L305.661 475.229L349.683 449.843C350.26 449.519 350.911 449.348 351.573 449.348C352.235 449.348 352.885 449.519 353.462 449.843L404.931 479.687C405.113 479.805 405.262 479.967 405.366 480.157C405.469 480.348 405.523 480.561 405.523 480.778C405.523 480.995 405.469 481.208 405.366 481.399C405.262 481.589 405.113 481.751 404.931 481.869Z" fill="#BA68C8"/>
<path opacity="0.5" d="M404.931 481.869L361.056 507.201L305.661 475.229L349.683 449.843C350.26 449.519 350.911 449.348 351.573 449.348C352.235 449.348 352.885 449.519 353.462 449.843L404.931 479.687C405.113 479.805 405.262 479.967 405.366 480.157C405.469 480.348 405.523 480.561 405.523 480.778C405.523 480.995 405.469 481.208 405.366 481.399C405.262 481.589 405.113 481.751 404.931 481.869Z" fill="black"/>
<path d="M355.315 511.181C355.189 511.244 355.051 511.277 354.911 511.277C354.771 511.277 354.633 511.244 354.507 511.181C354.348 511.096 354.214 510.969 354.121 510.814C354.027 510.659 353.977 510.482 353.975 510.301V506.1C353.984 505.161 354.234 504.24 354.699 503.425C355.165 502.609 355.831 501.926 356.635 501.441L356.8 501.331C356.876 501.289 356.962 501.268 357.048 501.27C357.135 501.272 357.219 501.296 357.294 501.34C357.368 501.385 357.429 501.448 357.471 501.524C357.513 501.599 357.535 501.685 357.534 501.771C357.534 502 357.625 502.219 357.786 502.381C357.948 502.543 358.167 502.633 358.396 502.633C358.625 502.633 358.844 502.543 359.006 502.381C359.167 502.219 359.258 502 359.258 501.771C359.262 501.379 359.16 500.994 358.963 500.655C358.766 500.316 358.482 500.036 358.139 499.845C357.804 499.643 357.421 499.536 357.03 499.536C356.638 499.536 356.255 499.643 355.92 499.845L355.755 499.937C354.688 500.57 353.805 501.469 353.19 502.546C352.576 503.623 352.253 504.842 352.251 506.082V510.246C352.251 510.738 352.384 511.221 352.636 511.644C352.888 512.067 353.249 512.414 353.682 512.648C354.077 512.859 354.519 512.966 354.966 512.96C355.508 512.964 356.039 512.804 356.488 512.502C356.654 512.389 356.771 512.219 356.819 512.025L355.315 511.181Z" fill="white"/>
<path d="M347.115 506.449C346.99 506.511 346.852 506.544 346.712 506.544C346.572 506.544 346.433 506.511 346.308 506.449C346.149 506.363 346.015 506.236 345.922 506.081C345.828 505.926 345.778 505.749 345.776 505.568V501.404C345.782 500.462 346.03 499.537 346.495 498.718C346.961 497.899 347.629 497.214 348.436 496.727H348.601C348.677 496.685 348.762 496.663 348.849 496.663C348.935 496.663 349.02 496.685 349.096 496.727C349.169 496.771 349.229 496.833 349.271 496.907C349.312 496.981 349.335 497.064 349.335 497.149C349.335 497.377 349.426 497.597 349.587 497.758C349.749 497.92 349.968 498.011 350.197 498.011C350.426 498.011 350.645 497.92 350.806 497.758C350.968 497.597 351.059 497.377 351.059 497.149C351.047 496.773 350.937 496.406 350.741 496.084C350.545 495.763 350.269 495.498 349.94 495.315C349.605 495.112 349.222 495.005 348.83 495.005C348.439 495.005 348.055 495.112 347.721 495.315L347.556 495.406C346.489 496.039 345.605 496.938 344.991 498.015C344.377 499.093 344.053 500.311 344.052 501.551V505.715C344.052 506.207 344.185 506.69 344.437 507.113C344.689 507.536 345.05 507.883 345.483 508.118C345.878 508.328 346.319 508.435 346.767 508.43C347.309 508.433 347.839 508.273 348.289 507.971C348.455 507.858 348.572 507.688 348.619 507.494L347.115 506.449Z" fill="white"/>
<path d="M338.916 501.698C338.79 501.757 338.652 501.787 338.513 501.787C338.373 501.787 338.236 501.757 338.109 501.698C337.95 501.612 337.816 501.485 337.723 501.331C337.629 501.176 337.579 500.998 337.577 500.817V496.654C337.583 495.712 337.831 494.787 338.296 493.968C338.762 493.149 339.43 492.463 340.237 491.976L340.402 491.885C340.478 491.843 340.563 491.821 340.65 491.821C340.736 491.821 340.821 491.843 340.897 491.885C340.97 491.929 341.03 491.99 341.072 492.064C341.113 492.138 341.135 492.222 341.136 492.306C341.136 492.535 341.227 492.754 341.388 492.916C341.55 493.078 341.769 493.169 341.998 493.169C342.226 493.169 342.446 493.078 342.607 492.916C342.769 492.754 342.86 492.535 342.86 492.306C342.847 491.93 342.738 491.563 342.542 491.242C342.346 490.921 342.07 490.655 341.741 490.472C341.406 490.27 341.023 490.163 340.631 490.163C340.24 490.163 339.856 490.27 339.522 490.472L339.357 490.564C338.29 491.197 337.406 492.096 336.792 493.173C336.178 494.25 335.854 495.469 335.853 496.709V500.872C335.853 501.365 335.986 501.848 336.238 502.271C336.49 502.694 336.851 503.041 337.284 503.275C337.679 503.486 338.12 503.593 338.568 503.587C339.11 503.591 339.64 503.431 340.09 503.129C340.256 503.016 340.373 502.846 340.42 502.652L338.916 501.698Z" fill="white"/>
<path d="M330.717 496.984C330.591 497.043 330.453 497.073 330.314 497.073C330.174 497.073 330.036 497.043 329.91 496.984C329.751 496.898 329.617 496.771 329.523 496.616C329.43 496.462 329.38 496.284 329.378 496.103V491.94C329.384 490.997 329.632 490.073 330.097 489.254C330.563 488.435 331.231 487.749 332.038 487.262L332.203 487.17C332.279 487.129 332.364 487.107 332.451 487.107C332.537 487.107 332.622 487.129 332.698 487.17C332.771 487.214 332.831 487.276 332.872 487.35C332.914 487.424 332.936 487.508 332.937 487.592C332.937 487.821 333.027 488.04 333.189 488.202C333.351 488.364 333.57 488.455 333.799 488.455C334.027 488.455 334.247 488.364 334.408 488.202C334.57 488.04 334.661 487.821 334.661 487.592C334.648 487.216 334.539 486.849 334.343 486.528C334.147 486.207 333.871 485.941 333.542 485.758C333.207 485.556 332.823 485.449 332.432 485.449C332.041 485.449 331.657 485.556 331.322 485.758L331.157 485.85C330.091 486.483 329.207 487.382 328.593 488.459C327.979 489.536 327.655 490.755 327.654 491.995V496.158C327.654 496.651 327.787 497.134 328.039 497.557C328.29 497.98 328.652 498.327 329.085 498.561C329.48 498.772 329.921 498.879 330.369 498.873C330.911 498.877 331.441 498.717 331.891 498.415C332.056 498.302 332.174 498.132 332.221 497.938L330.717 496.984Z" fill="white"/>
<path d="M322.518 492.251C322.392 492.31 322.254 492.341 322.114 492.341C321.975 492.341 321.837 492.31 321.711 492.251C321.551 492.166 321.418 492.039 321.324 491.884C321.231 491.729 321.18 491.552 321.179 491.371V487.207C321.185 486.265 321.432 485.34 321.898 484.521C322.364 483.702 323.032 483.017 323.839 482.53H324.004C324.08 482.488 324.165 482.466 324.251 482.466C324.338 482.466 324.423 482.488 324.499 482.53C324.571 482.574 324.632 482.636 324.673 482.71C324.715 482.784 324.737 482.867 324.737 482.952C324.737 483.18 324.828 483.4 324.99 483.561C325.152 483.723 325.371 483.814 325.599 483.814C325.828 483.814 326.047 483.723 326.209 483.561C326.371 483.4 326.462 483.18 326.462 482.952C326.449 482.575 326.34 482.209 326.143 481.887C325.947 481.566 325.672 481.301 325.343 481.118C325.008 480.915 324.624 480.808 324.233 480.808C323.842 480.808 323.458 480.915 323.123 481.118L322.958 481.209C321.892 481.842 321.008 482.741 320.394 483.818C319.78 484.896 319.456 486.114 319.455 487.354V491.518C319.455 492.01 319.588 492.493 319.839 492.916C320.091 493.339 320.453 493.686 320.885 493.921C321.283 494.123 321.723 494.229 322.169 494.232C322.711 494.236 323.242 494.076 323.692 493.774C323.857 493.661 323.975 493.491 324.022 493.297L322.518 492.251Z" fill="white"/>
<path d="M314.319 487.519C314.192 487.578 314.055 487.609 313.915 487.609C313.776 487.609 313.638 487.578 313.512 487.519C313.352 487.434 313.219 487.307 313.125 487.152C313.031 486.997 312.981 486.82 312.98 486.639V482.438C312.986 481.496 313.233 480.571 313.699 479.752C314.165 478.933 314.833 478.248 315.639 477.761L315.805 477.669C315.88 477.627 315.966 477.605 316.052 477.605C316.139 477.605 316.224 477.627 316.3 477.669C316.375 477.71 316.437 477.771 316.479 477.846C316.521 477.921 316.542 478.005 316.538 478.091C316.538 478.32 316.629 478.539 316.791 478.701C316.952 478.862 317.172 478.953 317.4 478.953C317.629 478.953 317.848 478.862 318.01 478.701C318.172 478.539 318.262 478.32 318.262 478.091C318.243 477.71 318.127 477.34 317.924 477.016C317.722 476.693 317.44 476.426 317.105 476.242C316.77 476.059 316.394 475.963 316.013 475.966C315.631 475.968 315.256 476.069 314.924 476.257L314.759 476.367C313.693 477 312.809 477.899 312.195 478.976C311.58 480.053 311.257 481.272 311.256 482.512V486.675C311.256 487.168 311.388 487.651 311.64 488.074C311.892 488.497 312.254 488.844 312.686 489.078C313.084 489.28 313.524 489.387 313.97 489.39C314.512 489.394 315.043 489.234 315.493 488.932C315.658 488.819 315.776 488.649 315.823 488.455L314.319 487.519Z" fill="white"/>
<path d="M410.581 470.424L363.147 497.809L301.406 462.17L348.858 434.784L410.581 470.424Z" fill="#E6E6E6"/>
<path d="M413.314 469.525L363.752 492.857L305.203 452.154L354.783 428.841L413.314 469.525Z" fill="#FAFAFA"/>
<path d="M302.653 396.687H262.391L266.059 439.296C266.298 440.647 266.859 441.919 267.696 443.005C268.533 444.091 269.62 444.958 270.865 445.533C274.49 447.377 278.5 448.339 282.568 448.339C286.635 448.339 290.645 447.377 294.27 445.533C295.513 444.955 296.598 444.086 297.434 443.001C298.27 441.916 298.834 440.645 299.076 439.296L302.653 396.687Z" fill="#BA68C8"/>
<path d="M305.221 394.357V390.982H304.432C303.13 388.471 301.088 386.422 298.581 385.112C289.721 379.995 275.341 379.995 266.481 385.112C263.97 386.416 261.926 388.467 260.63 390.982H259.823V394.394C259.823 397.732 262.042 401.089 266.481 403.657C275.341 408.774 289.721 408.774 298.581 403.657C303.02 401.089 305.239 397.714 305.221 394.357Z" fill="#E0E0E0"/>
<path d="M298.581 400.447C289.721 405.564 275.341 405.564 266.481 400.447C257.622 395.329 257.604 387.038 266.481 381.921C275.359 376.803 289.721 376.785 298.581 381.921C307.44 387.057 307.44 395.311 298.581 400.447Z" fill="#EBEBEB"/>
<path d="M300.727 389.808V387.112H300.085C299.041 385.1 297.401 383.46 295.389 382.416C291.41 380.397 287.011 379.345 282.549 379.345C278.088 379.345 273.689 380.397 269.71 382.416C267.692 383.452 266.05 385.094 265.014 387.112H264.372V389.808C264.372 392.504 266.206 395.201 269.71 397.237C273.689 399.256 278.088 400.308 282.549 400.308C287.011 400.308 291.41 399.256 295.389 397.237C298.948 395.164 300.727 392.468 300.727 389.808Z" fill="#E0E0E0"/>
<path d="M295.389 394.651C291.41 396.669 287.011 397.722 282.549 397.722C278.087 397.722 273.688 396.669 269.71 394.651C262.593 390.56 262.593 383.902 269.71 379.811C273.688 377.792 278.087 376.74 282.549 376.74C287.011 376.74 291.41 377.792 295.389 379.811C302.488 383.902 302.488 390.56 295.389 394.651Z" fill="#F5F5F5"/>
<path d="M292.418 392.486C289.351 394.041 285.961 394.851 282.522 394.851C279.083 394.851 275.693 394.041 272.626 392.486C267.325 389.441 267.123 384.562 272.076 381.48C272.251 381.351 272.435 381.235 272.626 381.132C273.827 380.449 275.109 379.919 276.441 379.554C281.776 378.05 287.481 378.614 292.418 381.132C297.902 384.305 297.902 389.331 292.418 392.486Z" fill="#F0F0F0"/>
<path d="M272.626 382.691C275.694 381.127 279.088 380.312 282.531 380.312C285.974 380.312 289.368 381.127 292.436 382.691C293.429 383.155 294.305 383.836 295 384.684C295.695 385.531 296.192 386.524 296.453 387.588C296.875 385.259 295.518 382.838 292.436 381.059C289.364 379.51 285.971 378.704 282.531 378.704C279.091 378.704 275.698 379.51 272.626 381.059C269.526 382.893 268.187 385.259 268.591 387.588C268.854 386.522 269.353 385.529 270.052 384.681C270.75 383.833 271.63 383.153 272.626 382.691Z" fill="#E0E0E0"/>
<path d="M280.11 383.223L276.056 385.809L272.094 382.966V381.407C272.269 381.278 272.453 381.162 272.644 381.059C273.845 380.375 275.127 379.845 276.46 379.481V380.637L280.11 383.223Z" fill="#E0E0E0"/>
<path d="M758.21 133.012L529.881 1.09162C528.919 0.382552 527.756 0 526.561 0C525.366 0 524.203 0.382552 523.241 1.09162L515.335 6.59441L520.728 13.2711V197.339C520.728 204.089 524.837 212.013 529.899 214.838L755.972 345.364L756.394 352.536L764.721 346.831C765.677 345.933 766.415 344.828 766.879 343.601C767.343 342.374 767.521 341.057 767.399 339.751V150.419C767.381 143.669 763.272 135.836 758.21 133.012Z" fill="#BA68C8"/>
<path opacity="0.3" d="M758.21 133.012L529.881 1.09162C528.919 0.382552 527.756 0 526.561 0C525.366 0 524.203 0.382552 523.241 1.09162L515.335 6.59441L520.728 13.2711V197.339C520.728 204.089 524.837 212.013 529.899 214.838L755.972 345.364L756.394 352.536L764.721 346.831C765.677 345.933 766.415 344.828 766.879 343.601C767.343 342.374 767.521 341.057 767.399 339.751V150.419C767.381 143.669 763.272 135.836 758.21 133.012Z" fill="black"/>
<path d="M750.432 352.022L522.104 220.194C517.06 217.277 512.932 209.445 512.932 202.695V13.3628C512.932 6.63107 517.041 3.53117 522.104 6.44765L750.432 138.276C755.495 141.192 759.604 149.025 759.604 155.775V345.089C759.604 351.839 755.495 354.957 750.432 352.022Z" fill="#BA68C8"/>
<path d="M750.432 352.022L522.104 220.194C517.06 217.277 512.932 209.445 512.932 202.695V13.3628C512.932 6.63107 517.041 3.53117 522.104 6.44765L750.432 138.276C755.495 141.192 759.604 149.025 759.604 155.775V345.089C759.604 351.839 755.495 354.957 750.432 352.022Z" fill="#BA68C8"/>
<path d="M750.432 138.276L522.104 6.44765C517.06 3.53117 512.932 6.63107 512.932 13.3628V22.5341L759.585 164.928V155.756C759.604 149.025 755.495 141.192 750.432 138.276Z" fill="#455A64"/>
<path d="M518.472 7.18137C519.434 7.22663 520.369 7.51708 521.187 8.02513L749.515 139.853C753.991 142.44 757.77 149.722 757.77 155.775V345.089C757.77 348.757 756.32 351.289 754.101 351.289C753.131 351.243 752.189 350.945 751.368 350.426L523.021 218.598C518.564 216.03 514.785 208.73 514.785 202.695V13.3628C514.785 9.60259 516.234 7.18137 518.454 7.18137M518.454 5.34711C515.207 5.34711 512.951 8.33695 512.951 13.3628V202.713C512.951 209.464 517.06 217.296 522.122 220.212L750.433 352.022C751.536 352.707 752.802 353.087 754.101 353.123C757.348 353.123 759.604 350.115 759.604 345.089V155.775C759.604 149.025 755.495 141.101 750.433 138.276L522.104 6.44766C521.002 5.75756 519.735 5.37735 518.435 5.34711H518.454Z" fill="#BA68C8"/>
<path d="M618.806 105.498C618.464 105.504 618.128 105.415 617.834 105.241L530.908 55.1289C530.501 54.8531 530.213 54.433 530.103 53.9532C529.993 53.4735 530.069 52.9699 530.315 52.5441C530.562 52.1182 530.961 51.8017 531.432 51.6585C531.903 51.5152 532.41 51.5559 532.853 51.7722L619.778 101.958C620.171 102.161 620.482 102.492 620.661 102.897C620.839 103.301 620.875 103.754 620.762 104.181C620.649 104.609 620.393 104.985 620.038 105.247C619.682 105.51 619.248 105.643 618.806 105.626V105.498Z" fill="white"/>
<path d="M741.096 176.19C740.753 176.191 740.416 176.096 740.124 175.915L675.741 138.753C675.294 138.495 674.967 138.07 674.833 137.571C674.699 137.072 674.768 136.541 675.026 136.093C675.284 135.646 675.709 135.319 676.208 135.185C676.707 135.05 677.238 135.12 677.686 135.378L742.068 172.558C742.461 172.762 742.772 173.093 742.951 173.497C743.129 173.902 743.165 174.355 743.052 174.782C742.939 175.209 742.683 175.585 742.328 175.848C741.972 176.111 741.538 176.244 741.096 176.227V176.19Z" fill="white"/>
<path d="M662.755 130.957C662.415 130.953 662.081 130.865 661.783 130.7L635.571 115.586C635.332 115.469 635.119 115.304 634.946 115.1C634.773 114.897 634.643 114.661 634.566 114.406C634.488 114.15 634.464 113.882 634.494 113.617C634.525 113.352 634.61 113.096 634.743 112.865C634.877 112.634 635.057 112.434 635.272 112.275C635.486 112.117 635.731 112.004 635.991 111.945C636.251 111.885 636.521 111.88 636.783 111.929C637.045 111.978 637.295 112.08 637.515 112.229L663.672 127.325C664.064 127.529 664.376 127.86 664.554 128.265C664.733 128.669 664.769 129.122 664.656 129.549C664.543 129.976 664.287 130.352 663.932 130.615C663.576 130.878 663.142 131.011 662.7 130.994L662.755 130.957Z" fill="white"/>
<path d="M618.806 227.311C618.465 227.309 618.131 227.22 617.834 227.054L530.908 176.869C530.501 176.593 530.213 176.173 530.103 175.693C529.993 175.213 530.069 174.71 530.315 174.284C530.562 173.858 530.961 173.542 531.432 173.398C531.903 173.255 532.41 173.296 532.853 173.512L619.778 223.679C620.223 223.939 620.547 224.366 620.677 224.865C620.808 225.363 620.735 225.894 620.475 226.339C620.315 226.64 620.074 226.891 619.779 227.062C619.484 227.234 619.147 227.32 618.806 227.311Z" fill="white"/>
<path d="M741.096 297.912C740.754 297.918 740.418 297.829 740.124 297.655L675.741 260.493C675.294 260.235 674.967 259.81 674.833 259.311C674.699 258.812 674.768 258.281 675.026 257.833C675.284 257.385 675.709 257.059 676.208 256.925C676.707 256.79 677.238 256.86 677.686 257.118L742.068 294.298C742.511 294.555 742.835 294.977 742.969 295.472C743.103 295.966 743.037 296.494 742.784 296.939C742.611 297.234 742.365 297.479 742.069 297.65C741.773 297.82 741.438 297.91 741.096 297.912Z" fill="white"/>
<path d="M662.755 252.679C662.413 252.685 662.077 252.596 661.783 252.422L635.571 237.326C635.332 237.209 635.119 237.043 634.946 236.84C634.773 236.637 634.643 236.401 634.566 236.145C634.488 235.89 634.464 235.622 634.494 235.357C634.525 235.092 634.61 234.836 634.743 234.605C634.877 234.374 635.057 234.173 635.272 234.015C635.486 233.857 635.731 233.744 635.991 233.684C636.251 233.625 636.521 233.619 636.783 233.668C637.045 233.717 637.295 233.82 637.515 233.969L663.672 249.065C664.115 249.322 664.439 249.744 664.573 250.239C664.707 250.733 664.64 251.261 664.387 251.707C664.22 251.994 663.982 252.233 663.697 252.403C663.411 252.573 663.087 252.668 662.755 252.679Z" fill="white"/>
<path d="M618.806 255.907C618.464 255.914 618.128 255.825 617.834 255.65L530.908 205.483C530.461 205.225 530.134 204.8 530 204.301C529.866 203.803 529.935 203.271 530.193 202.823C530.451 202.376 530.876 202.049 531.375 201.915C531.873 201.781 532.405 201.85 532.853 202.108L619.778 252.238C620.171 252.442 620.482 252.773 620.661 253.178C620.839 253.582 620.875 254.035 620.762 254.462C620.649 254.89 620.393 255.265 620.038 255.528C619.682 255.791 619.248 255.924 618.806 255.907Z" fill="white"/>
<path d="M713.692 310.715C713.351 310.721 713.014 310.632 712.72 310.458L675.741 289.107C675.502 288.99 675.289 288.824 675.116 288.621C674.943 288.418 674.814 288.182 674.736 287.927C674.658 287.671 674.634 287.403 674.665 287.138C674.695 286.873 674.78 286.617 674.914 286.386C675.047 286.155 675.227 285.954 675.442 285.796C675.656 285.638 675.901 285.525 676.161 285.466C676.421 285.406 676.691 285.4 676.953 285.449C677.215 285.498 677.465 285.601 677.686 285.75L714.664 307.101C714.886 307.227 715.08 307.395 715.236 307.596C715.392 307.797 715.506 308.027 715.573 308.273C715.639 308.518 715.656 308.775 715.623 309.027C715.59 309.279 715.507 309.522 715.38 309.743C715.207 310.037 714.961 310.282 714.665 310.453C714.369 310.623 714.034 310.713 713.692 310.715Z" fill="white"/>
<path d="M662.755 281.312C662.415 281.307 662.081 281.219 661.783 281.055L635.571 265.959C635.124 265.701 634.797 265.276 634.663 264.777C634.529 264.278 634.598 263.747 634.856 263.299C635.114 262.852 635.539 262.525 636.038 262.391C636.536 262.256 637.068 262.326 637.515 262.584L663.672 277.68C664.064 277.883 664.376 278.215 664.554 278.619C664.733 279.023 664.769 279.476 664.656 279.903C664.543 280.331 664.287 280.707 663.932 280.969C663.576 281.232 663.142 281.366 662.7 281.348L662.755 281.312Z" fill="white"/>
<path d="M575.462 95.6844C575.119 95.6855 574.782 95.5902 574.49 95.4093L530.908 70.2616C530.572 69.9616 530.35 69.554 530.281 69.1087C530.212 68.6633 530.3 68.2078 530.53 67.82C530.759 67.4322 531.116 67.1363 531.54 66.9827C531.964 66.8292 532.428 66.8276 532.853 66.9782L576.435 92.126C576.88 92.3862 577.203 92.8127 577.334 93.3115C577.465 93.8102 577.392 94.3405 577.132 94.7856C576.962 95.0733 576.716 95.309 576.422 95.4674C576.128 95.6258 575.796 95.7008 575.462 95.6844Z" fill="white"/>
<path d="M700.981 168.156C700.641 168.152 700.307 168.063 700.009 167.899L635.571 130.719C635.332 130.601 635.119 130.436 634.946 130.233C634.773 130.03 634.643 129.793 634.566 129.538C634.488 129.283 634.464 129.015 634.494 128.75C634.525 128.485 634.61 128.229 634.743 127.998C634.877 127.767 635.057 127.566 635.272 127.408C635.486 127.249 635.731 127.137 635.991 127.077C636.251 127.018 636.521 127.012 636.783 127.061C637.045 127.11 637.295 127.213 637.515 127.362L701.898 164.524C702.29 164.728 702.602 165.059 702.78 165.463C702.959 165.868 702.995 166.321 702.882 166.748C702.769 167.175 702.513 167.551 702.158 167.814C701.802 168.076 701.368 168.21 700.926 168.193L700.981 168.156Z" fill="white"/>
<path d="M619.411 121.052C619.07 121.059 618.733 120.97 618.439 120.795L592.283 105.699C591.835 105.442 591.508 105.017 591.374 104.518C591.24 104.019 591.309 103.487 591.567 103.04C591.825 102.592 592.25 102.265 592.749 102.131C593.248 101.997 593.779 102.067 594.227 102.324L620.383 117.42C620.829 117.681 621.152 118.107 621.283 118.606C621.413 119.105 621.341 119.635 621.081 120.08C620.92 120.381 620.679 120.632 620.384 120.804C620.089 120.975 619.752 121.062 619.411 121.052Z" fill="white"/>
<path d="M618.806 135.836C618.463 135.838 618.126 135.742 617.834 135.561L530.908 85.3209C530.559 85.0245 530.326 84.6142 530.249 84.1625C530.173 83.7107 530.258 83.2465 530.491 82.8517C530.723 82.457 531.088 82.157 531.52 82.0046C531.952 81.8523 532.424 81.8575 532.853 82.0192L619.778 132.205C620.223 132.465 620.547 132.891 620.677 133.39C620.808 133.889 620.735 134.419 620.475 134.864C620.315 135.166 620.074 135.416 619.779 135.588C619.484 135.76 619.147 135.846 618.806 135.836Z" fill="white"/>
<path d="M693.864 179.162C693.522 179.168 693.186 179.079 692.892 178.905L675.741 169C675.502 168.882 675.289 168.717 675.116 168.514C674.943 168.311 674.814 168.075 674.736 167.819C674.658 167.564 674.634 167.296 674.665 167.031C674.695 166.766 674.78 166.51 674.914 166.279C675.047 166.048 675.227 165.847 675.442 165.689C675.656 165.53 675.901 165.418 676.161 165.358C676.421 165.299 676.691 165.293 676.953 165.342C677.215 165.391 677.465 165.494 677.686 165.643L694.836 175.548C695.279 175.805 695.603 176.227 695.737 176.722C695.871 177.216 695.804 177.744 695.551 178.189C695.379 178.484 695.133 178.729 694.837 178.9C694.541 179.07 694.205 179.16 693.864 179.162Z" fill="white"/>
<path d="M584.028 130.884C583.688 130.879 583.354 130.791 583.056 130.627L565.869 120.722C565.648 120.594 565.453 120.424 565.297 120.222C565.142 120.019 565.027 119.787 564.961 119.54C564.894 119.293 564.877 119.036 564.91 118.782C564.943 118.529 565.026 118.284 565.154 118.062C565.282 117.841 565.452 117.646 565.654 117.491C565.857 117.335 566.089 117.22 566.336 117.154C566.583 117.087 566.84 117.07 567.094 117.103C567.347 117.137 567.592 117.219 567.814 117.347L584.964 127.252C585.356 127.456 585.667 127.787 585.846 128.191C586.025 128.595 586.061 129.049 585.948 129.476C585.834 129.903 585.579 130.279 585.223 130.542C584.868 130.804 584.433 130.938 583.992 130.921L584.028 130.884Z" fill="white"/>
<path d="M662.755 161.204C662.415 161.2 662.081 161.111 661.783 160.947L635.571 145.851C635.35 145.724 635.155 145.554 634.999 145.351C634.843 145.148 634.729 144.917 634.663 144.67C634.596 144.423 634.579 144.165 634.612 143.912C634.645 143.658 634.728 143.413 634.856 143.192C634.983 142.97 635.154 142.776 635.356 142.62C635.559 142.464 635.791 142.35 636.038 142.283C636.285 142.217 636.542 142.2 636.796 142.233C637.049 142.266 637.294 142.349 637.515 142.476L663.672 157.572C664.064 157.776 664.376 158.107 664.554 158.511C664.733 158.916 664.769 159.369 664.656 159.796C664.543 160.223 664.287 160.599 663.932 160.862C663.576 161.125 663.142 161.258 662.7 161.241L662.755 161.204Z" fill="white"/>
<path d="M559.743 116.852C559.401 116.858 559.064 116.77 558.771 116.595L530.908 100.509C530.501 100.233 530.213 99.8126 530.103 99.3329C529.993 98.8532 530.069 98.3496 530.315 97.9237C530.562 97.4978 530.961 97.1813 531.432 97.0381C531.903 96.8949 532.41 96.9355 532.853 97.1519L560.715 113.238C561.127 113.428 561.459 113.757 561.653 114.167C561.846 114.578 561.888 115.043 561.772 115.482C561.656 115.92 561.389 116.303 561.017 116.564C560.646 116.825 560.195 116.946 559.743 116.907V116.852Z" fill="white"/>
<path d="M619.411 151.354C619.07 151.361 618.733 151.272 618.439 151.097L592.283 135.946C592.043 135.829 591.83 135.664 591.657 135.461C591.484 135.258 591.355 135.021 591.277 134.766C591.2 134.511 591.175 134.242 591.206 133.977C591.236 133.712 591.321 133.456 591.455 133.226C591.589 132.995 591.768 132.794 591.983 132.635C592.198 132.477 592.443 132.365 592.703 132.305C592.963 132.245 593.232 132.24 593.494 132.289C593.757 132.338 594.006 132.44 594.227 132.59L620.383 147.686C620.776 147.889 621.087 148.221 621.266 148.625C621.445 149.029 621.48 149.482 621.367 149.909C621.254 150.337 620.999 150.713 620.643 150.975C620.287 151.238 619.853 151.372 619.411 151.354Z" fill="white"/>
<path d="M618.806 167.184C618.464 167.191 618.128 167.102 617.834 166.927L530.908 116.742C530.501 116.466 530.213 116.046 530.103 115.566C529.993 115.086 530.069 114.583 530.315 114.157C530.562 113.731 530.961 113.415 531.432 113.271C531.903 113.128 532.41 113.169 532.853 113.385L619.778 163.552C620.223 163.812 620.547 164.239 620.677 164.738C620.808 165.236 620.735 165.767 620.475 166.212C620.315 166.513 620.074 166.764 619.779 166.935C619.484 167.107 619.147 167.193 618.806 167.184Z" fill="white"/>
<path d="M741.096 237.785C740.758 237.802 740.421 237.726 740.124 237.564L675.741 200.402C675.294 200.145 674.967 199.719 674.833 199.221C674.699 198.722 674.768 198.19 675.026 197.743C675.284 197.295 675.709 196.968 676.208 196.834C676.707 196.7 677.238 196.769 677.686 197.027L742.068 234.208C742.511 234.465 742.835 234.887 742.969 235.381C743.103 235.876 743.037 236.403 742.784 236.849C742.607 237.137 742.358 237.375 742.063 237.539C741.767 237.702 741.434 237.787 741.096 237.785Z" fill="white"/>
<path d="M662.755 192.552C662.413 192.558 662.077 192.469 661.783 192.295L635.571 177.199C635.332 177.082 635.119 176.916 634.946 176.713C634.773 176.51 634.643 176.274 634.566 176.018C634.488 175.763 634.464 175.495 634.494 175.23C634.525 174.965 634.61 174.709 634.743 174.478C634.877 174.247 635.057 174.046 635.272 173.888C635.486 173.73 635.731 173.617 635.991 173.557C636.251 173.498 636.521 173.492 636.783 173.541C637.045 173.59 637.295 173.693 637.515 173.842L663.672 188.938C664.117 189.199 664.441 189.624 664.575 190.121C664.708 190.619 664.641 191.149 664.387 191.598C664.215 191.879 663.976 192.113 663.691 192.28C663.406 192.446 663.085 192.54 662.755 192.552Z" fill="white"/>
<path d="M575.462 157.279C575.121 157.285 574.784 157.197 574.49 157.022L530.908 131.874C530.461 131.617 530.134 131.191 530 130.693C529.866 130.194 529.935 129.662 530.193 129.215C530.451 128.767 530.876 128.44 531.375 128.306C531.873 128.172 532.405 128.241 532.853 128.499L576.435 153.665C576.827 153.869 577.138 154.2 577.317 154.604C577.496 155.009 577.532 155.462 577.418 155.889C577.305 156.316 577.05 156.692 576.694 156.955C576.339 157.218 575.904 157.351 575.462 157.334V157.279Z" fill="white"/>
<path d="M700.981 229.769C700.637 229.77 700.301 229.675 700.009 229.494L635.571 192.332C635.124 192.074 634.797 191.649 634.663 191.15C634.529 190.651 634.598 190.119 634.856 189.672C635.114 189.224 635.539 188.898 636.038 188.763C636.536 188.629 637.068 188.699 637.515 188.957L701.898 226.137C702.29 226.341 702.602 226.672 702.78 227.076C702.959 227.48 702.995 227.933 702.882 228.361C702.769 228.788 702.513 229.164 702.158 229.427C701.802 229.689 701.368 229.823 700.926 229.806L700.981 229.769Z" fill="white"/>
<path d="M619.411 182.665C619.071 182.661 618.737 182.572 618.439 182.408L592.283 167.294C592.043 167.177 591.83 167.011 591.657 166.808C591.484 166.605 591.355 166.369 591.277 166.113C591.2 165.858 591.175 165.59 591.206 165.325C591.236 165.06 591.321 164.804 591.455 164.573C591.589 164.342 591.768 164.141 591.983 163.983C592.198 163.825 592.443 163.712 592.703 163.652C592.963 163.593 593.232 163.587 593.494 163.636C593.757 163.685 594.006 163.788 594.227 163.937L620.383 179.033C620.829 179.294 621.152 179.72 621.283 180.219C621.413 180.718 621.341 181.248 621.08 181.693C620.92 181.994 620.679 182.245 620.384 182.417C620.089 182.588 619.752 182.674 619.411 182.665Z" fill="white"/>
<path d="M618.806 197.431C618.464 197.437 618.128 197.348 617.834 197.174L530.908 146.989C530.501 146.713 530.213 146.293 530.103 145.813C529.993 145.333 530.069 144.83 530.315 144.404C530.562 143.978 530.961 143.661 531.432 143.518C531.903 143.375 532.41 143.416 532.853 143.632L619.778 193.817C620.171 194.021 620.482 194.352 620.661 194.756C620.839 195.161 620.875 195.614 620.762 196.041C620.649 196.468 620.393 196.844 620.038 197.107C619.682 197.37 619.248 197.503 618.806 197.486V197.431Z" fill="white"/>
<path d="M693.864 240.774C693.524 240.77 693.19 240.682 692.892 240.518L675.741 230.613C675.502 230.495 675.289 230.33 675.116 230.127C674.943 229.924 674.814 229.687 674.736 229.432C674.658 229.177 674.634 228.908 674.665 228.643C674.695 228.378 674.78 228.123 674.914 227.892C675.047 227.661 675.227 227.46 675.442 227.302C675.656 227.143 675.901 227.031 676.161 226.971C676.421 226.911 676.691 226.906 676.953 226.955C677.215 227.004 677.465 227.106 677.686 227.256L694.836 237.143C695.228 237.346 695.54 237.677 695.718 238.082C695.897 238.486 695.933 238.939 695.82 239.366C695.707 239.794 695.451 240.17 695.096 240.432C694.74 240.695 694.306 240.828 693.864 240.811V240.774Z" fill="white"/>
<path d="M584.028 192.497C583.685 192.498 583.348 192.403 583.056 192.222L565.869 182.335C565.422 182.077 565.095 181.652 564.961 181.153C564.827 180.655 564.896 180.123 565.154 179.675C565.412 179.228 565.837 178.901 566.336 178.767C566.834 178.633 567.366 178.702 567.814 178.96L584.964 188.865C585.356 189.069 585.667 189.4 585.846 189.804C586.025 190.208 586.061 190.661 585.948 191.089C585.834 191.516 585.579 191.892 585.223 192.155C584.868 192.417 584.433 192.551 583.992 192.533L584.028 192.497Z" fill="white"/>
<path d="M662.755 222.89C662.415 222.886 662.081 222.798 661.783 222.634L635.571 207.464C635.124 207.206 634.797 206.781 634.663 206.283C634.529 205.784 634.598 205.252 634.856 204.805C635.114 204.357 635.539 204.03 636.038 203.896C636.536 203.762 637.068 203.831 637.515 204.089L663.727 219.222C664.119 219.425 664.431 219.757 664.609 220.161C664.788 220.565 664.824 221.018 664.711 221.446C664.598 221.873 664.342 222.249 663.987 222.511C663.631 222.774 663.197 222.908 662.755 222.89Z" fill="white"/>
<path d="M559.743 178.465C559.401 178.471 559.065 178.382 558.771 178.208L530.908 162.121C530.453 161.864 530.12 161.436 529.98 160.932C529.841 160.428 529.908 159.889 530.165 159.434C530.423 158.979 530.851 158.646 531.355 158.506C531.859 158.367 532.398 158.433 532.853 158.691L560.715 174.759C561.107 174.963 561.419 175.294 561.597 175.699C561.776 176.103 561.812 176.556 561.699 176.983C561.586 177.41 561.33 177.786 560.975 178.049C560.619 178.312 560.185 178.445 559.743 178.428V178.465Z" fill="white"/>
<path d="M619.411 212.912C619.07 212.919 618.733 212.83 618.439 212.655L592.283 197.559C591.835 197.301 591.508 196.876 591.374 196.378C591.24 195.879 591.309 195.347 591.567 194.9C591.825 194.452 592.25 194.125 592.749 193.991C593.248 193.857 593.779 193.926 594.227 194.184L620.383 209.298C620.776 209.502 621.087 209.833 621.266 210.238C621.445 210.642 621.48 211.095 621.367 211.522C621.254 211.95 620.999 212.326 620.643 212.588C620.287 212.851 619.853 212.984 619.411 212.967V212.912Z" fill="white"/>
<path d="M584.028 221.478C583.687 221.485 583.35 221.396 583.056 221.221L565.906 211.316C565.666 211.199 565.453 211.034 565.28 210.831C565.107 210.627 564.978 210.391 564.901 210.136C564.823 209.88 564.799 209.612 564.829 209.347C564.86 209.082 564.944 208.826 565.078 208.595C565.212 208.364 565.392 208.164 565.606 208.005C565.821 207.847 566.066 207.734 566.326 207.675C566.586 207.615 566.856 207.61 567.118 207.659C567.38 207.708 567.629 207.81 567.85 207.959L585.001 217.864C585.413 218.054 585.745 218.383 585.938 218.793C586.132 219.204 586.174 219.669 586.058 220.108C585.942 220.546 585.674 220.93 585.303 221.19C584.932 221.451 584.48 221.572 584.028 221.533V221.478Z" fill="white"/>
<path d="M559.743 207.464C559.403 207.46 559.069 207.372 558.771 207.207L530.908 191.121C530.461 190.863 530.134 190.438 530 189.939C529.866 189.441 529.935 188.909 530.193 188.461C530.451 188.014 530.876 187.687 531.375 187.553C531.873 187.419 532.405 187.488 532.853 187.746L560.715 203.832C561.107 204.036 561.419 204.367 561.597 204.772C561.776 205.176 561.812 205.629 561.699 206.056C561.586 206.483 561.33 206.859 560.975 207.122C560.619 207.385 560.185 207.518 559.743 207.501V207.464Z" fill="white"/>
<path d="M619.411 241.912C619.071 241.907 618.737 241.819 618.439 241.655L592.283 226.559C591.835 226.301 591.508 225.876 591.374 225.377C591.24 224.878 591.309 224.347 591.567 223.899C591.825 223.452 592.25 223.125 592.749 222.991C593.248 222.857 593.779 222.926 594.227 223.184L620.383 238.28C620.829 238.54 621.152 238.966 621.283 239.465C621.413 239.964 621.341 240.494 621.081 240.939C620.92 241.241 620.679 241.491 620.384 241.663C620.089 241.835 619.752 241.921 619.411 241.912Z" fill="white"/>
<path d="M549.086 74.0034V144.329C549.086 145.466 548.682 146.163 548.04 146.475L545.344 147.961V145.558L544.959 73.2514L548.48 71.4171C548.874 72.2227 549.081 73.1068 549.086 74.0034Z" fill="#263238"/>
<path d="M548.48 71.4722L544.959 73.3065L459.684 23.2495L457.648 22.0756L460.454 20.4981H460.546C460.808 20.3586 461.104 20.2965 461.399 20.3193C461.695 20.342 461.978 20.4486 462.215 20.6265L546.591 69.2161C547.429 69.7661 548.086 70.5508 548.48 71.4722Z" fill="#37474F"/>
<path d="M546.041 75.5259V145.393C546.079 145.767 546.025 146.144 545.885 146.492C545.744 146.841 545.521 147.15 545.234 147.392H545.069C544.814 147.495 544.538 147.532 544.266 147.5C543.993 147.468 543.733 147.368 543.51 147.209L459.684 98.9127C458.913 98.3634 458.283 97.6405 457.843 96.8025C457.403 95.9645 457.167 95.0349 457.153 94.0886V24.3317C457.115 23.9668 457.165 23.5981 457.299 23.2565C457.433 22.915 457.647 22.6107 457.923 22.369C457.998 22.3027 458.085 22.2528 458.18 22.2223C458.428 22.1332 458.695 22.105 458.956 22.1401C459.218 22.1752 459.468 22.2726 459.684 22.424L543.51 70.6467C544.323 71.178 544.961 71.9373 545.344 72.8295C545.779 73.6634 546.017 74.5857 546.041 75.5259Z" fill="#455A64"/>
<path d="M528.913 91.432V88.2014L517.71 76.0724V79.7894L525.381 87.7495L525.277 87.4974V87.9562L525.381 87.823L517.71 86.9663V90.6832L528.913 91.432ZM507.246 65.2038L512.498 90.7257L515.418 92.404L510.166 66.8822L507.246 65.2038ZM493.749 71.2224L504.953 83.3514V79.6345L497.282 71.6743L497.385 71.9265V71.4676L497.282 71.6009L504.953 72.4576V68.7406L493.749 67.9919V71.2224Z" fill="#FAFAFA"/>
<path d="M458.345 22.2956C458.619 22.3035 458.885 22.386 459.115 22.5341L543.491 71.1236C544.233 71.6152 544.819 72.309 545.179 73.123C545.566 73.8786 545.773 74.7136 545.784 75.5625V145.851C545.827 146.142 545.799 146.439 545.703 146.716C545.608 146.994 545.447 147.245 545.234 147.447H545.087C544.967 147.477 544.841 147.477 544.72 147.447C544.449 147.426 544.186 147.344 543.95 147.209L459.574 98.6009C458.874 98.0882 458.301 97.4211 457.9 96.6513C457.499 95.8815 457.281 95.0297 457.263 94.1619V24.0565C457.232 23.7622 457.267 23.4647 457.366 23.1855C457.464 22.9064 457.623 22.6526 457.831 22.4424H457.996C458.105 22.4166 458.218 22.4166 458.327 22.4424M458.327 21.9655C458.149 21.9647 457.974 22.0023 457.813 22.0755L457.556 22.2223C457.284 22.4704 457.075 22.779 456.944 23.1231C456.813 23.4672 456.765 23.8372 456.804 24.2033V94.327C456.821 95.2779 457.059 96.2118 457.498 97.0553C457.937 97.8987 458.566 98.6287 459.335 99.1878L543.711 147.777C544.011 147.959 544.352 148.061 544.702 148.071C544.897 148.073 545.09 148.036 545.27 147.961L545.436 147.869C545.724 147.624 545.948 147.312 546.089 146.96C546.229 146.609 546.282 146.228 546.243 145.851V75.5625C546.22 74.6442 545.994 73.7423 545.582 72.9212C545.189 72.0305 544.553 71.2679 543.748 70.7201L459.372 22.1305C459.068 21.9413 458.721 21.8338 458.363 21.8187L458.327 21.9655Z" fill="#37474F"/>
<path d="M535.531 24.1116C535.531 26.1109 534.118 26.918 532.394 25.9459C531.469 25.3471 530.701 24.5346 530.155 23.577C529.609 22.6193 529.301 21.5445 529.257 20.4431C529.257 18.4437 530.651 17.6367 532.394 18.6088C533.313 19.2142 534.076 20.0282 534.622 20.9845C535.167 21.9407 535.478 23.0122 535.531 24.1116Z" fill="white"/>
<path d="M547.197 31.3019C547.197 33.3012 545.784 34.1266 544.042 33.1361C543.119 32.534 542.354 31.7208 541.808 30.7638C541.263 29.8069 540.953 28.7338 540.905 27.6334C540.905 25.634 542.317 24.8086 544.042 25.7991C544.967 26.3992 545.737 27.2115 546.285 28.1686C546.834 29.1256 547.146 30.1998 547.197 31.3019Z" fill="white"/>
<path d="M558.844 38.5105C558.844 40.5099 557.45 41.3169 555.707 40.3448C554.788 39.7394 554.025 38.9254 553.48 37.9691C552.935 37.0129 552.623 35.9414 552.571 34.842C552.571 32.8427 553.983 32.0356 555.707 33.0077C556.633 33.6065 557.401 34.419 557.947 35.3766C558.493 36.3343 558.8 37.4091 558.844 38.5105Z" fill="white"/>
</svg>
